<?xml version="1.0" standalone="no"?>
<!DOCTYPE svg PUBLIC "-//W3C//DTD SVG 20010904//EN"
 "http://www.w3.org/TR/2001/REC-SVG-20010904/DTD/svg10.dtd">
<svg version="1.0" xmlns="http://www.w3.org/2000/svg"
 width="652.000000pt" height="652.000000pt" viewBox="0 0 652.000000 652.000000"
 preserveAspectRatio="xMidYMid meet">
<metadata>
Created by potrace 1.14, written by Peter Selinger 2001-2017
</metadata>
<g transform="translate(0.000000,652.000000) scale(0.100000,-0.100000)"
fill="#000000" stroke="none">
<path d="M5407 5211 c-16 -28 -32 -51 -38 -51 -5 0 -8 -3 -8 -7 3 -19 -2 -31
-23 -53 -13 -14 -23 -27 -23 -31 0 -11 -40 -79 -46 -79 -4 0 -18 -17 -30 -37
-13 -21 -29 -44 -36 -51 -7 -7 -20 -26 -30 -42 -9 -17 -21 -30 -26 -30 -4 0
-5 -4 -2 -10 3 -5 1 -10 -5 -10 -5 0 -18 -13 -29 -30 -10 -16 -21 -27 -24 -23
-4 3 -7 0 -7 -8 0 -8 -18 -32 -39 -54 -22 -22 -37 -43 -34 -47 2 -5 -4 -8 -13
-8 -10 0 -15 -3 -11 -6 3 -3 -10 -21 -30 -40 -19 -19 -31 -34 -26 -35 4 0 -1
-4 -11 -8 -21 -8 -30 -37 -15 -47 5 -3 9 0 9 7 0 7 3 10 6 7 3 -4 21 0 40 8
19 8 34 11 34 7 0 -5 7 1 15 11 9 12 15 15 15 7 0 -11 3 -11 17 0 11 10 14 10
9 2 -4 -8 -2 -13 4 -13 7 0 10 -7 6 -15 -3 -8 0 -15 7 -15 7 0 8 -3 2 -8 -14
-10 -17 -32 -4 -32 5 0 8 -4 4 -9 -10 -17 -13 -71 -3 -71 5 0 4 -9 -2 -20 -8
-15 -8 -20 2 -20 8 0 9 -3 3 -8 -5 -4 -11 -25 -13 -47 -2 -22 -7 -42 -10 -45
-7 -5 -10 -19 -15 -67 -1 -11 -6 -19 -11 -15 -5 3 -7 -2 -3 -11 3 -10 2 -17
-4 -17 -6 0 -7 -5 -4 -10 4 -6 1 -17 -5 -25 -7 -8 -9 -15 -4 -16 5 0 16 -2 24
-3 8 -1 25 8 37 21 12 13 20 23 16 23 -3 0 10 13 30 29 20 15 34 31 30 34 -3
4 2 9 11 13 9 3 16 11 16 16 0 10 57 88 73 99 5 3 7 8 6 10 -2 2 11 25 28 50
18 26 29 49 26 53 -4 3 -1 6 6 6 7 0 9 5 6 10 -3 6 -1 10 6 10 7 0 9 3 6 7 -4
3 0 15 10 25 9 10 13 18 9 18 -5 0 1 16 13 35 11 20 23 47 25 61 3 14 10 32
17 40 6 8 8 14 4 14 -4 0 -3 6 2 13 6 6 9 20 8 30 -2 9 2 17 8 17 7 0 5 5 -3
10 -10 6 -11 10 -2 10 6 0 12 11 12 24 0 14 5 28 10 31 8 5 7 11 -1 21 -9 11
-9 14 0 14 7 0 10 4 7 8 -2 4 -1 14 4 22 5 8 5 21 -1 31 -6 12 -5 22 6 32 8 8
12 17 9 20 -3 3 -1 15 6 26 8 16 8 21 -1 21 -8 0 -8 4 -1 13 7 8 7 18 2 27 -5
8 -6 19 -3 24 11 16 9 56 -1 56 -6 0 -6 4 1 11 6 6 8 23 3 45 -5 19 -4 32 1
28 14 -8 11 13 -4 28 -8 7 -16 19 -18 27 -3 7 -17 -10 -32 -38z"/>
<path d="M1034 5241 c4 -6 3 -11 -2 -11 -6 0 -8 -9 -5 -19 3 -10 0 -28 -6 -40
-8 -15 -8 -21 -1 -21 8 0 8 -6 0 -20 -8 -15 -8 -20 2 -20 8 0 9 -3 3 -8 -15
-10 -18 -42 -4 -42 8 0 8 -4 -1 -15 -9 -11 -9 -15 -1 -15 7 0 9 -4 6 -10 -3
-5 -1 -10 6 -10 10 0 10 -3 2 -11 -7 -7 -8 -21 -3 -40 6 -20 5 -29 -3 -29 -7
0 -6 -4 3 -10 8 -5 10 -10 3 -10 -8 0 -7 -12 2 -44 8 -24 11 -47 8 -50 -4 -3
-2 -6 3 -6 5 0 11 -12 12 -26 1 -15 7 -33 13 -40 8 -10 8 -14 1 -14 -10 0 1
-44 25 -100 3 -8 8 -24 10 -35 2 -11 8 -21 13 -23 6 -2 10 -13 10 -26 0 -12
11 -38 25 -57 13 -20 21 -39 18 -43 -4 -3 -1 -6 5 -6 7 0 12 -8 12 -18 0 -10
9 -28 19 -39 11 -12 18 -23 15 -26 -3 -3 5 -13 18 -23 13 -11 23 -24 23 -31 0
-6 16 -29 36 -52 20 -22 35 -42 33 -44 -2 -2 17 -23 41 -47 25 -24 45 -50 45
-58 0 -7 4 -11 9 -7 5 3 16 -1 24 -10 13 -13 16 -13 21 0 3 9 1 27 -5 42 -5
14 -8 32 -5 39 3 7 1 14 -4 16 -5 2 -11 14 -14 28 -3 14 -9 39 -15 57 -5 17
-7 34 -3 37 3 3 1 6 -4 6 -6 0 -9 20 -9 45 1 26 -2 42 -8 38 -5 -3 -1 7 9 23
13 19 15 29 7 31 -9 3 -9 12 -2 30 6 17 6 29 0 32 -5 4 -4 14 4 25 13 17 18
17 67 5 29 -7 60 -19 69 -26 14 -12 17 -11 23 2 4 11 -13 36 -54 78 -33 33
-60 64 -60 69 0 4 -7 8 -15 8 -14 0 -19 12 -16 33 0 4 -6 7 -14 7 -8 0 -15 5
-15 11 0 5 -13 24 -30 42 -16 18 -30 38 -30 45 0 7 -4 10 -10 7 -5 -3 -10 -2
-10 4 0 5 -18 32 -40 60 -22 28 -40 53 -40 56 0 4 -7 13 -15 22 -8 8 -12 19
-9 25 4 6 3 8 -3 5 -6 -4 -15 5 -21 18 -7 14 -16 25 -22 25 -6 0 -9 4 -6 9 3
4 -3 16 -14 26 -11 10 -17 21 -15 26 3 4 -1 11 -9 16 -8 4 -15 10 -15 13 0 15
-17 47 -30 57 -9 7 -11 13 -6 13 7 0 7 3 0 8 -5 4 -15 16 -21 26 -6 11 -16 22
-24 24 -7 3 -10 0 -6 -7z"/>
<path d="M1972 5079 c-19 -7 -21 -11 -10 -23 7 -8 16 -12 19 -10 4 2 10 -3 13
-12 3 -8 10 -12 16 -9 5 3 10 2 10 -3 0 -6 20 -16 44 -23 25 -7 42 -17 40 -21
-3 -4 0 -8 7 -8 20 0 39 -33 27 -47 -7 -9 -7 -13 1 -13 7 0 8 -8 1 -25 -6 -16
-6 -25 0 -25 6 0 6 -9 0 -25 -7 -18 -6 -25 2 -25 9 0 9 -3 1 -11 -6 -6 -8 -23
-3 -45 4 -18 4 -32 0 -29 -4 2 -7 -9 -6 -25 1 -17 4 -30 8 -30 4 0 3 -11 -2
-25 -6 -16 -6 -25 0 -25 6 0 6 -9 0 -25 -7 -18 -6 -25 2 -25 9 0 9 -3 0 -12
-8 -8 -8 -17 -1 -30 5 -10 7 -23 4 -28 -3 -6 -1 -10 5 -10 6 0 9 -4 6 -9 -3
-4 3 -16 14 -26 11 -10 17 -22 14 -26 -3 -5 0 -9 6 -9 6 0 8 -4 5 -10 -3 -5
-1 -10 4 -10 6 0 10 -3 9 -7 -1 -5 9 -29 22 -55 21 -41 25 -45 38 -31 15 14
21 77 10 89 -3 3 -2 21 2 40 4 19 4 36 0 39 -4 3 -4 21 0 40 4 19 5 37 1 39
-7 5 -5 81 3 103 3 7 0 13 -6 13 -7 0 -6 5 2 15 10 12 10 15 0 15 -10 0 -10 3
0 15 10 12 10 15 0 15 -8 0 -9 4 -3 13 8 11 9 25 3 45 -6 18 -5 69 2 95 4 17
3 27 -4 27 -6 0 -6 6 2 15 10 12 10 15 0 15 -10 0 -10 3 0 15 9 11 9 15 1 15
-7 0 -9 5 -4 13 13 20 14 49 2 41 -8 -4 -8 -1 -1 12 7 14 6 23 -4 32 -8 7 -14
9 -14 5 0 -4 -4 -2 -9 6 -8 12 -12 12 -25 2 -11 -10 -16 -10 -16 -2 0 8 -5 9
-19 1 -14 -7 -22 -7 -26 0 -5 8 -11 7 -21 -1 -11 -9 -14 -9 -14 0 0 9 -5 9
-21 0 -16 -8 -20 -8 -14 1 6 9 2 9 -14 1 -16 -9 -21 -9 -21 0 0 8 -4 8 -15 -1
-12 -10 -15 -10 -15 0 0 10 -3 10 -14 1 -8 -7 -16 -8 -18 -3 -2 6 -12 6 -26 1z"/>
<path d="M2350 5082 c0 -5 -8 -9 -17 -8 -15 1 -17 -9 -18 -71 0 -42 -4 -73
-10 -73 -5 0 -3 -5 5 -10 8 -5 10 -10 5 -10 -14 0 -13 -73 0 -82 7 -5 7 -8 0
-8 -5 0 -10 -11 -10 -25 0 -14 2 -25 5 -25 3 0 5 -18 5 -40 0 -22 -4 -40 -10
-40 -5 0 -3 -5 5 -10 8 -5 10 -10 4 -10 -16 0 -6 -83 11 -96 8 -6 12 -14 9
-17 -8 -8 18 -3 33 6 6 4 14 3 18 -3 4 -7 13 -6 27 1 16 8 19 8 13 -1 -6 -9
-2 -9 14 -1 11 7 21 8 21 3 0 -5 7 -9 15 -9 8 0 15 5 15 11 0 6 4 6 12 -2 8
-8 17 -8 31 -1 15 8 18 8 12 -1 -6 -9 -2 -9 14 -1 11 7 21 8 21 2 0 -12 33 -9
42 4 5 6 8 5 8 -3 0 -10 5 -10 21 -1 16 8 20 8 14 -1 -6 -9 -2 -9 14 -1 11 7
21 8 21 3 0 -5 7 -9 15 -9 8 0 15 5 15 11 0 6 4 6 12 -2 8 -8 17 -8 31 -1 14
8 17 8 13 0 -5 -7 0 -8 15 -3 25 10 46 52 26 52 -7 0 -8 3 -2 8 6 4 10 21 10
37 0 17 -4 33 -10 37 -7 5 -7 8 0 8 6 0 10 16 10 35 0 19 -4 35 -10 35 -7 0
-7 3 0 8 6 4 10 21 10 37 0 17 -4 33 -10 37 -7 5 -7 8 0 8 6 0 10 24 10 52 0
29 -4 56 -10 60 -7 5 -7 8 0 8 6 0 9 18 7 43 -3 33 -9 45 -28 54 -16 7 -24 8
-24 1 0 -6 -6 -5 -15 2 -12 10 -15 10 -15 0 0 -10 -3 -10 -15 0 -11 9 -15 9
-15 1 0 -7 -5 -9 -11 -5 -17 10 -51 11 -70 3 -8 -4 -21 -4 -29 1 -9 5 -19 5
-27 -2 -9 -7 -13 -7 -13 1 0 9 -5 9 -20 1 -15 -8 -20 -8 -20 2 0 9 -3 9 -12 0
-7 -7 -17 -8 -28 -2 -9 5 -22 5 -30 0 -8 -5 -22 -4 -32 1 -13 7 -18 6 -18 -2
0 -8 -4 -8 -15 1 -12 10 -15 10 -15 0 0 -10 -3 -10 -15 0 -9 7 -15 8 -15 2z"/>
<path d="M2889 5079 c-13 -4 -19 -7 -12 -8 6 -1 14 -10 18 -20 3 -10 13 -21
23 -25 9 -3 24 -10 32 -15 21 -15 94 -44 103 -43 4 1 7 -3 7 -9 0 -6 7 -9 15
-5 8 3 15 1 15 -4 0 -5 7 -6 17 -3 11 5 14 3 8 -6 -6 -10 -3 -11 14 -2 16 9
21 9 21 -1 0 -9 3 -9 10 2 6 9 10 10 10 3 0 -11 29 -11 48 0 4 3 16 -4 26 -14
12 -11 14 -19 7 -19 -7 0 -9 -4 -6 -10 4 -6 -21 -9 -65 -7 -38 1 -70 -2 -70
-6 0 -5 -5 -5 -12 -1 -7 5 -30 7 -51 5 -26 -2 -37 1 -33 8 4 6 3 11 -3 11 -5
0 -8 9 -6 19 2 11 -3 25 -11 32 -8 6 -14 9 -14 5 0 -3 -11 -1 -25 4 -15 6 -25
6 -25 0 0 -5 -9 -7 -19 -5 -17 3 -29 -8 -28 -25 0 -3 -5 -15 -12 -27 -9 -18
-9 -23 1 -23 9 0 9 -3 -2 -10 -13 -9 -13 -10 0 -10 13 0 13 -1 0 -10 -11 -7
-11 -10 -2 -10 10 0 10 -5 2 -20 -8 -15 -8 -20 2 -20 9 0 9 -3 -2 -10 -13 -9
-13 -10 0 -10 13 0 13 -1 0 -10 -11 -7 -11 -10 -2 -10 10 0 10 -5 2 -20 -8
-15 -8 -20 2 -20 9 0 9 -3 -2 -10 -13 -9 -13 -10 0 -10 13 0 13 -1 0 -10 -11
-7 -11 -10 -2 -10 10 0 10 -5 2 -20 -8 -15 -8 -20 2 -20 9 0 9 -3 -2 -10 -13
-9 -13 -10 0 -10 12 0 13 -2 1 -9 -11 -7 -11 -10 0 -15 11 -5 11 -7 2 -12 -7
-3 -13 -10 -13 -15 0 -6 3 -8 8 -6 4 3 6 -12 6 -34 -1 -21 2 -42 7 -45 5 -3 7
-10 4 -15 -4 -5 -1 -9 4 -9 6 0 11 -3 10 -7 -2 -16 14 -53 23 -53 5 0 6 -4 3
-10 -3 -5 -1 -10 5 -10 6 0 8 -4 5 -10 -3 -5 -2 -10 3 -10 4 0 14 -16 22 -35
8 -19 17 -35 22 -35 4 0 11 -1 15 -2 3 -2 7 7 8 20 1 12 -2 22 -7 22 -5 0 -4
9 2 20 6 11 8 20 4 20 -3 0 -1 6 5 14 8 9 8 16 2 20 -5 4 -8 15 -6 26 2 11 -1
20 -7 20 -6 0 -3 11 6 25 9 14 12 25 7 25 -6 0 -8 9 -6 20 2 11 -1 22 -6 26
-6 4 -6 11 2 20 7 8 9 38 7 79 -3 43 -1 65 6 65 6 0 5 4 -2 9 -26 16 17 21
188 21 182 0 197 4 188 55 -3 14 -2 25 2 25 3 0 4 23 0 50 -4 28 -3 50 2 50 5
0 4 9 -2 20 -8 14 -8 20 0 20 8 0 8 6 0 20 -8 14 -8 20 0 20 7 0 8 6 0 19 -7
14 -6 21 3 24 9 4 9 6 -1 6 -7 1 -10 6 -6 13 4 6 3 8 -4 4 -6 -3 -13 -3 -16 2
-5 9 -78 8 -93 -1 -5 -3 -15 -2 -23 3 -9 5 -19 5 -27 -2 -9 -7 -13 -7 -13 2 0
10 -3 10 -15 0 -12 -10 -15 -10 -15 0 0 10 -3 10 -15 0 -12 -10 -15 -10 -15 0
0 9 -3 10 -13 1 -10 -8 -17 -7 -25 1 -9 9 -12 9 -12 -1 0 -11 -3 -11 -15 -1
-12 10 -15 10 -15 0 0 -10 -3 -10 -15 0 -11 9 -15 9 -15 1 0 -7 -5 -9 -12 -5
-15 9 -109 11 -139 3z"/>
<path d="M3460 5077 c0 -4 -4 -6 -9 -2 -5 3 -12 1 -16 -5 -3 -6 2 -13 12 -17
10 -4 27 -15 37 -25 18 -16 37 -23 59 -19 4 0 7 -3 7 -9 0 -5 6 -10 14 -10 8
0 16 -3 18 -7 5 -13 79 -44 89 -38 5 4 9 1 9 -6 0 -8 4 -8 13 -1 15 13 95 8
109 -6 17 -17 1 -44 -24 -41 -13 2 -29 0 -35 -4 -7 -5 -13 -5 -13 0 0 12 -104
10 -112 -2 -5 -6 -8 -4 -8 5 0 13 -1 13 -10 0 -7 -11 -10 -11 -10 -2 0 7 -5
10 -12 6 -8 -5 -9 0 -5 15 3 14 0 24 -8 27 -8 3 -12 11 -9 19 3 7 -2 15 -10
18 -9 4 -16 2 -16 -4 0 -6 -7 -6 -20 1 -14 8 -20 8 -20 0 0 -6 -5 -8 -10 -5
-22 13 -45 -5 -45 -35 0 -16 3 -30 8 -30 4 0 2 -9 -5 -19 -9 -15 -9 -23 1 -34
9 -11 9 -17 1 -22 -6 -4 -9 -13 -6 -21 3 -8 1 -14 -5 -14 -6 0 -6 -7 1 -20 8
-15 8 -20 -2 -20 -9 0 -9 -3 2 -10 11 -7 11 -10 2 -10 -7 0 -10 -5 -7 -11 11
-17 11 -89 1 -92 -6 -2 -6 -9 -1 -18 5 -8 10 -36 11 -64 1 -27 2 -52 4 -55 1
-3 2 -8 1 -12 0 -5 3 -8 9 -8 6 0 10 -3 9 -7 -2 -16 14 -53 23 -53 5 0 6 -4 3
-10 -3 -5 -1 -10 5 -10 6 0 8 -4 5 -10 -3 -5 -1 -10 6 -10 7 0 9 -3 6 -7 -4
-3 1 -12 11 -20 9 -8 11 -11 3 -7 -9 5 -8 -2 5 -19 21 -29 29 -32 39 -17 3 6
1 10 -6 10 -8 0 -8 4 -2 13 6 6 9 20 8 30 -2 9 1 17 6 17 6 0 5 8 -1 20 -8 14
-8 20 0 20 7 0 5 9 -4 22 -10 14 -12 27 -6 38 5 10 6 20 3 24 -3 3 -1 6 7 6
10 0 10 3 0 15 -9 11 -9 15 -1 15 8 0 9 6 3 18 -5 9 -7 35 -6 57 1 22 -3 43
-10 47 -8 6 -7 8 2 8 7 0 10 5 7 10 -3 6 -1 10 6 10 9 0 10 3 2 11 -12 12 -5
61 8 53 5 -3 9 0 9 7 0 8 3 9 13 0 8 -6 17 -8 20 -4 4 3 7 1 7 -5 0 -13 58
-72 71 -72 5 0 9 -5 9 -11 0 -6 16 -26 35 -45 19 -18 35 -30 35 -27 0 4 7 -3
16 -16 13 -18 18 -20 25 -10 6 10 9 10 9 2 0 -9 7 -10 25 -3 14 5 27 6 30 0 8
-12 65 9 65 24 0 7 -23 35 -50 62 -99 97 -96 92 -77 100 9 3 24 4 32 0 8 -3
15 -2 15 3 0 4 13 6 28 3 18 -2 33 2 42 12 15 20 19 84 5 90 -6 3 -5 5 1 5 8
1 9 12 4 36 -5 21 -4 35 1 35 6 0 5 9 -1 20 -6 11 -7 20 -3 20 5 0 6 21 4 47
-4 51 -26 79 -48 61 -9 -7 -13 -7 -13 1 0 9 -5 9 -21 0 -16 -8 -20 -8 -14 1 6
9 2 9 -14 1 -16 -9 -21 -9 -21 0 0 8 -4 8 -15 -1 -12 -10 -15 -10 -15 0 0 9
-3 10 -13 1 -10 -8 -17 -7 -25 1 -9 9 -12 9 -12 -1 0 -11 -3 -11 -15 -1 -12
10 -15 10 -15 0 0 -10 -3 -10 -15 0 -11 9 -15 9 -15 1 0 -8 -6 -9 -17 -3 -19
9 -54 9 -70 -1 -5 -3 -15 -2 -23 3 -9 5 -19 5 -27 -2 -9 -7 -13 -7 -13 2 0 10
-3 10 -15 0 -8 -7 -15 -8 -15 -3 0 5 -9 9 -20 9 -11 0 -20 -4 -20 -9z"/>
<path d="M4020 5078 c0 -4 -3 -7 -7 -7 -20 3 -23 -3 -12 -22 8 -17 8 -20 -1
-14 -9 6 -11 -2 -8 -29 2 -20 2 -36 -2 -36 -3 0 -5 -18 -5 -40 0 -22 5 -40 10
-40 6 0 3 -5 -5 -10 -13 -9 -13 -10 0 -10 13 0 13 -1 0 -10 -11 -7 -11 -10 -2
-10 10 0 10 -5 2 -20 -8 -15 -8 -20 2 -20 9 0 9 -3 -2 -10 -13 -9 -13 -10 0
-10 13 0 13 -1 0 -10 -8 -5 -10 -10 -4 -10 6 0 10 -13 10 -30 0 -16 -4 -30 -9
-30 -5 0 -3 -8 4 -17 10 -11 10 -14 2 -9 -16 9 -16 1 -3 -25 8 -14 7 -19 -2
-19 -9 0 -9 -3 2 -10 9 -6 10 -10 3 -10 -9 0 -9 -8 -2 -30 6 -16 15 -27 20
-24 5 3 9 -1 9 -8 0 -10 2 -10 9 1 5 8 11 9 15 3 3 -6 20 -7 41 -2 19 4 37 4
40 0 3 -4 21 -4 40 0 19 4 37 4 40 0 3 -4 21 -4 40 0 19 4 37 4 40 0 3 -4 21
-4 40 0 19 4 37 4 40 0 3 -4 21 -4 40 0 19 4 37 4 40 0 3 -5 17 -5 33 -1 25 7
27 11 27 59 0 29 2 52 5 52 3 0 3 27 0 60 -3 33 -3 60 0 60 3 0 3 27 0 60 -3
33 -3 60 0 60 3 0 3 27 0 60 -3 33 -2 60 2 60 11 0 -3 33 -20 47 -11 9 -19 10
-29 2 -9 -9 -13 -8 -13 0 0 8 -5 9 -19 1 -14 -7 -22 -7 -26 0 -5 8 -11 7 -21
-1 -11 -9 -14 -9 -14 0 0 9 -5 9 -21 0 -16 -8 -20 -8 -14 1 6 9 2 9 -14 1 -16
-9 -21 -9 -21 0 0 8 -4 8 -15 -1 -12 -10 -15 -10 -15 0 0 10 -3 10 -15 0 -12
-10 -15 -10 -15 0 0 10 -3 10 -15 0 -12 -10 -15 -10 -15 0 0 10 -3 10 -15 0
-12 -10 -15 -10 -15 0 0 10 -3 10 -15 0 -12 -10 -15 -10 -15 0 0 10 -3 10 -15
0 -12 -10 -15 -10 -15 0 0 10 -3 10 -15 0 -12 -10 -15 -10 -15 0 0 10 -3 10
-15 0 -8 -7 -15 -8 -15 -3 0 5 -9 9 -20 9 -11 0 -20 -4 -20 -8z"/>
<path d="M1635 4850 c3 -5 2 -10 -3 -10 -5 0 -9 -6 -9 -12 0 -7 -3 -23 -7 -35
-5 -16 -3 -23 6 -23 10 0 9 -3 -2 -10 -11 -7 -11 -10 -2 -10 10 0 10 -5 1 -21
-9 -17 -8 -20 2 -14 9 6 11 3 6 -8 -3 -10 -3 -17 2 -17 5 0 7 -12 5 -27 -1
-15 0 -32 4 -38 3 -5 8 -19 9 -30 2 -10 8 -22 13 -25 6 -3 11 -18 12 -33 1
-15 6 -27 11 -27 4 0 5 -5 2 -11 -4 -5 -1 -18 7 -27 8 -9 20 -32 28 -49 7 -18
17 -33 22 -33 5 0 7 -4 3 -9 -3 -5 2 -16 10 -25 9 -8 15 -18 15 -21 -1 -10 34
-65 42 -65 4 0 8 -5 8 -11 0 -7 8 -18 18 -26 11 -10 12 -12 2 -8 -8 3 -5 -2 8
-11 12 -9 22 -23 22 -30 0 -8 8 -14 17 -14 9 0 13 -3 10 -6 -3 -4 12 -27 33
-52 35 -40 54 -92 33 -92 -5 0 -8 -11 -8 -25 0 -14 4 -25 9 -25 4 0 6 -9 3
-20 -3 -11 -2 -20 1 -20 4 0 7 -25 7 -55 0 -30 3 -55 7 -55 4 0 8 -9 8 -20 0
-11 5 -20 11 -20 5 0 8 -4 4 -9 -3 -5 -1 -12 5 -16 6 -4 8 -10 6 -14 -3 -4 4
-17 14 -29 11 -12 20 -26 20 -32 0 -5 8 -10 17 -10 9 0 14 -3 10 -6 -7 -8 17
-34 32 -34 6 0 15 -9 21 -20 6 -11 20 -20 31 -20 11 0 17 -4 14 -10 -6 -9 8
-14 28 -11 4 0 7 -4 7 -10 0 -5 5 -7 10 -4 6 3 10 1 10 -5 0 -6 5 -8 10 -5 6
3 10 2 10 -3 0 -5 7 -9 15 -10 8 -1 22 -3 30 -4 8 -1 15 -4 15 -8 0 -4 11 -6
25 -5 14 2 25 -1 25 -7 0 -6 6 -5 15 2 8 7 15 9 15 4 0 -5 10 -10 23 -10 12
-1 41 -3 64 -6 23 -2 40 -1 37 3 -2 4 8 8 23 8 16 0 37 2 48 4 11 3 34 8 50
12 17 4 39 15 49 24 11 9 16 10 12 3 -6 -9 -2 -10 17 -1 31 14 31 39 0 39 -12
0 -23 5 -23 11 0 8 -5 8 -15 -1 -11 -9 -15 -9 -15 -1 0 9 -5 9 -20 1 -11 -6
-20 -7 -20 -1 0 12 -33 9 -42 -4 -5 -6 -8 -5 -8 3 0 9 -5 10 -17 4 -11 -6 -28
-5 -50 4 -23 10 -33 11 -33 3 0 -8 -4 -9 -13 0 -8 6 -17 8 -20 4 -4 -3 -7 -1
-7 5 0 7 -11 12 -25 12 -14 0 -25 5 -25 11 0 6 -9 9 -20 6 -11 -3 -18 -1 -15
3 3 5 -5 12 -17 16 -56 17 -170 146 -173 196 0 3 -3 9 -7 13 -4 4 -4 13 -1 21
3 8 -1 14 -8 14 -7 0 -9 3 -6 7 4 3 2 12 -4 20 -6 7 -7 13 -3 13 5 0 9 16 8
36 -1 22 3 37 12 41 8 3 12 9 9 13 -3 5 -1 11 4 14 5 3 8 21 6 40 -2 35 -17
55 -122 166 -60 63 -83 92 -83 102 0 4 -7 8 -15 8 -8 0 -15 5 -15 10 0 6 -5
16 -10 23 -47 56 -90 117 -90 128 0 7 -3 9 -6 6 -4 -4 -16 10 -26 31 -11 20
-25 42 -32 47 -7 6 -13 12 -14 15 -1 16 -27 60 -34 60 -5 0 -7 4 -3 9 3 5 0
15 -7 23 -7 7 -14 20 -16 28 -2 8 -9 18 -15 22 -7 4 -9 8 -5 8 8 0 -31 80 -39
80 -2 0 -1 -4 2 -10z"/>
<path d="M4837 4844 c-3 -3 -18 -31 -33 -62 -15 -32 -32 -60 -37 -63 -5 -3 -8
-10 -8 -15 0 -5 -15 -33 -34 -63 -19 -29 -35 -57 -35 -61 0 -4 -10 -18 -21
-31 -12 -13 -29 -35 -38 -49 -21 -33 -41 -59 -68 -87 -12 -13 -19 -23 -16 -23
4 0 -5 -13 -20 -28 -15 -16 -24 -31 -20 -35 3 -4 -2 -7 -12 -7 -10 0 -15 -3
-12 -7 4 -3 -5 -15 -20 -25 -16 -10 -25 -18 -21 -18 4 0 -19 -27 -51 -60 -32
-33 -55 -60 -52 -60 3 0 -2 -5 -12 -11 -9 -6 -15 -14 -12 -20 4 -5 2 -9 -3 -9
-13 0 -2 -51 18 -80 29 -43 29 -46 15 -73 -7 -14 -10 -27 -5 -29 4 -2 3 -14
-3 -28 -5 -14 -11 -32 -12 -41 -1 -10 -9 -24 -18 -34 -20 -19 -22 -29 -4 -19
6 5 0 -7 -15 -25 -16 -18 -28 -37 -28 -43 0 -6 -3 -9 -6 -6 -3 3 -19 -7 -36
-22 -33 -30 -129 -82 -162 -87 -12 -2 -31 -4 -43 -5 -13 -1 -23 -5 -23 -8 0
-3 -13 -5 -30 -4 -16 1 -30 -1 -30 -5 0 -8 -47 -7 -56 2 -3 3 -17 2 -30 -3
-16 -6 -24 -6 -24 1 0 6 -6 7 -12 2 -7 -4 -23 -8 -36 -9 -13 0 -28 -7 -35 -14
-8 -9 -8 -11 -1 -7 7 4 14 1 17 -6 4 -10 65 -36 97 -42 3 0 10 -3 15 -7 6 -4
23 -5 38 -4 15 2 27 -2 27 -8 0 -6 5 -4 10 4 5 8 10 10 10 3 0 -6 8 -9 19 -6
10 3 28 0 40 -6 15 -8 21 -9 21 -1 0 6 3 9 8 7 4 -3 34 0 67 5 33 6 66 10 73
11 6 0 12 5 12 10 0 5 9 7 20 4 11 -3 20 -1 20 5 0 5 4 7 9 4 5 -4 11 -3 13 1
1 5 19 16 38 26 19 10 53 33 75 52 22 19 43 35 48 35 4 0 6 4 2 9 -3 6 1 13 8
18 20 12 48 58 40 66 -3 4 -1 7 6 7 7 0 9 5 6 10 -3 6 -1 10 4 10 6 0 10 3 10
8 -1 4 0 9 1 12 5 13 12 48 17 80 3 19 10 41 17 49 9 12 8 13 -4 6 -13 -8 -13
-7 -1 9 13 15 13 19 0 27 -8 5 -9 9 -4 9 6 0 11 9 11 20 0 11 -3 20 -6 20 -3
0 -7 12 -8 28 -1 18 8 38 31 62 17 20 33 39 35 43 1 4 5 7 10 8 4 0 13 11 20
25 7 13 17 24 23 24 6 0 7 5 4 10 -3 6 -1 10 4 10 6 0 11 5 11 11 0 7 8 19 18
28 9 9 18 21 19 28 5 24 61 102 68 95 5 -4 5 -2 2 4 -3 6 0 21 7 35 14 27 16
34 16 50 0 5 6 7 13 3 7 -5 6 0 -3 11 -8 10 -10 16 -4 12 13 -8 27 19 18 34
-3 5 0 9 6 9 7 0 10 7 6 15 -3 8 -2 15 3 15 9 0 18 35 27 110 3 25 9 47 12 50
11 8 13 30 2 30 -6 0 -6 10 1 27 7 19 7 29 0 31 -6 2 -9 8 -5 13 6 10 -9 13
-19 3z"/>
<path d="M5690 4372 c0 -4 -18 -15 -40 -25 -23 -9 -43 -24 -46 -32 -4 -8 -10
-13 -14 -10 -4 2 -19 -6 -34 -20 -14 -13 -26 -21 -26 -17 0 4 -7 -1 -14 -11
-8 -10 -17 -18 -20 -19 -17 0 -46 -11 -46 -18 0 -3 -26 -20 -57 -36 -32 -16
-60 -32 -63 -35 -5 -5 -45 -25 -135 -65 -22 -10 -43 -23 -47 -28 -4 -6 -8 -8
-8 -3 0 4 -13 1 -29 -7 -16 -9 -31 -12 -35 -9 -3 4 -6 1 -6 -6 0 -7 -4 -10 -9
-6 -5 3 -17 -3 -27 -12 -17 -17 -15 -18 39 -21 31 -2 57 -8 57 -13 0 -6 4 -8
9 -4 19 11 20 -13 3 -61 -10 -27 -24 -60 -32 -74 -8 -14 -15 -27 -15 -30 -1
-12 -43 -69 -87 -119 -26 -30 -45 -58 -42 -63 7 -11 54 -10 54 2 0 5 6 7 14 4
7 -3 21 2 30 11 9 9 20 14 25 10 6 -3 14 2 19 10 4 9 18 17 30 18 12 1 22 4
22 8 0 4 10 9 23 13 13 3 36 17 50 30 15 14 27 22 27 19 0 -3 25 16 55 42 30
25 55 43 55 39 0 -4 11 7 25 26 14 19 25 30 25 25 0 -5 24 24 54 63 29 39 56
69 59 66 3 -3 8 5 12 17 4 12 23 44 42 71 19 26 32 48 27 48 -4 0 0 8 8 18 17
19 32 53 30 65 -1 4 3 7 9 7 5 0 7 5 4 10 -3 6 -2 10 4 10 5 0 8 9 6 20 -2 11
1 20 7 20 6 0 9 3 5 6 -3 4 1 14 10 22 10 10 12 17 5 20 -6 2 -8 10 -5 18 3 8
2 14 -1 14 -3 0 -6 -3 -6 -8z"/>
<path d="M770 4356 c0 -8 4 -17 9 -21 5 -3 13 -20 16 -38 4 -17 17 -45 28 -61
12 -16 16 -26 9 -22 -16 9 -15 1 1 -16 6 -8 25 -38 41 -68 16 -30 35 -59 43
-63 7 -4 13 -15 13 -22 0 -8 3 -15 8 -15 4 0 23 -23 42 -50 19 -27 38 -50 43
-50 4 0 7 -4 7 -10 0 -13 48 -59 54 -52 3 3 6 -3 6 -13 0 -10 2 -16 5 -13 3 3
25 -12 48 -33 23 -22 48 -39 54 -39 7 0 13 -4 13 -8 0 -5 22 -21 50 -36 27
-15 52 -31 55 -37 4 -5 11 -7 16 -4 5 4 9 1 9 -4 0 -6 9 -11 20 -11 11 0 20
-4 20 -10 0 -5 6 -10 14 -10 7 0 26 -7 42 -14 15 -8 32 -12 37 -9 5 3 12 1 16
-5 4 -6 10 -5 18 3 8 9 5 19 -13 40 -13 16 -24 32 -24 37 0 4 -6 8 -13 8 -8 0
-20 12 -28 28 -8 15 -20 31 -26 35 -7 4 -13 17 -13 27 0 11 -4 20 -10 20 -5 0
-10 7 -10 15 0 8 -4 15 -8 15 -4 0 -9 12 -10 28 -1 15 -7 29 -12 30 -6 2 -8 8
-4 13 3 5 1 9 -4 9 -5 0 -9 10 -8 23 1 15 8 23 24 25 12 2 22 9 22 15 0 7 4 6
10 -3 7 -11 10 -11 10 -2 0 10 5 10 20 2 15 -8 20 -8 20 2 0 10 2 10 9 0 7
-11 9 -11 14 1 5 13 -7 24 -35 32 -5 2 -10 4 -13 5 -3 1 -8 3 -12 4 -5 1 -23
10 -40 19 -18 10 -33 15 -33 11 0 -4 -7 -1 -15 6 -8 7 -15 9 -15 6 0 -4 -7 0
-16 8 -8 9 -21 16 -28 16 -8 0 -19 7 -26 15 -7 8 -16 13 -20 10 -5 -3 -15 1
-23 9 -8 8 -17 12 -21 9 -3 -4 -6 -1 -6 6 0 7 -4 9 -10 6 -5 -3 -10 -1 -10 6
0 7 -3 10 -6 6 -4 -3 -13 0 -21 8 -8 8 -23 15 -34 15 -11 0 -17 5 -14 10 3 6
-1 10 -9 10 -9 0 -16 5 -16 10 0 6 -3 9 -7 8 -11 -2 -73 36 -73 45 0 5 -4 5
-10 2 -5 -3 -10 -1 -10 5 0 6 -5 8 -10 5 -6 -3 -13 1 -16 9 -3 9 -11 16 -16
16 -6 0 -27 14 -48 30 -41 32 -70 39 -70 16z"/>
<path d="M1574 4361 c4 -6 1 -11 -6 -11 -9 0 -9 -3 2 -10 13 -9 13 -10 0 -10
-13 0 -13 -1 0 -10 10 -6 11 -10 3 -10 -9 0 -10 -7 -3 -26 7 -16 7 -23 0 -19
-6 3 -10 1 -10 -4 0 -6 5 -11 11 -11 6 0 8 -9 4 -20 -4 -12 -2 -20 5 -20 6 0
10 -6 7 -12 -2 -7 1 -24 8 -38 7 -14 19 -38 26 -55 16 -35 17 -36 84 -115 28
-32 55 -59 61 -59 6 -1 19 -10 29 -21 10 -11 22 -17 26 -14 5 3 9 0 9 -6 0 -6
4 -9 9 -6 5 4 11 2 13 -2 1 -5 16 -12 31 -16 18 -4 26 -3 23 3 -3 5 -1 11 5
13 8 3 5 11 -7 23 -12 12 -15 20 -7 22 8 3 8 13 -2 38 -13 29 -13 34 1 39 8 3
12 10 9 16 -3 5 -1 10 5 10 7 0 8 6 1 19 -6 10 -8 21 -5 24 3 3 -15 20 -40 37
-25 18 -43 37 -40 41 3 5 -2 9 -11 9 -8 0 -18 7 -21 15 -4 8 -10 15 -16 15 -5
0 -49 39 -99 88 -82 80 -122 112 -105 83z"/>
<path d="M4877 4355 c-8 -8 -16 -12 -18 -10 -2 2 -15 -11 -28 -29 -14 -18 -39
-43 -57 -57 -18 -13 -30 -26 -28 -28 2 -3 -8 -13 -23 -23 -16 -10 -24 -18 -19
-18 5 0 -15 -19 -45 -42 -71 -57 -110 -101 -97 -109 6 -4 8 -14 5 -23 -4 -9
-3 -15 1 -15 25 4 30 -3 22 -28 -4 -16 -9 -35 -11 -43 -2 -8 -7 -17 -10 -20
-4 -3 -2 -16 3 -30 5 -14 12 -20 16 -14 4 5 17 9 29 8 12 -1 31 7 42 17 11 11
25 19 31 19 5 0 10 5 10 10 0 6 3 9 8 8 4 -1 21 12 39 30 17 17 29 32 27 32
-3 0 9 15 26 33 17 17 33 42 36 54 4 13 10 20 15 18 5 -3 11 6 15 20 3 14 9
25 13 25 4 0 7 8 7 18 2 37 15 87 24 90 6 2 6 11 0 23 -6 10 -7 19 -3 19 4 0
8 18 9 40 1 43 -13 52 -39 25z"/>
<path d="M3216 4188 c3 -4 -1 -8 -9 -8 -8 0 -18 -7 -21 -16 -4 -9 -9 -14 -13
-11 -3 4 -19 -13 -35 -36 -17 -23 -37 -47 -45 -54 -8 -6 -14 -14 -13 -18 1 -3
-3 -19 -10 -34 -9 -23 -17 -28 -41 -26 -21 2 -29 -2 -29 -13 0 -8 -3 -12 -7
-9 -8 8 -58 -93 -55 -110 2 -7 -2 -13 -8 -13 -6 0 -8 -4 -5 -10 3 -5 4 -10 2
-10 -9 0 -46 78 -40 84 4 3 1 6 -5 6 -7 0 -11 3 -10 8 3 12 -25 92 -32 92 -15
0 -32 -30 -26 -45 3 -8 1 -15 -5 -15 -6 0 -8 -4 -4 -9 3 -5 1 -13 -5 -16 -8
-5 -7 -11 1 -21 9 -11 9 -14 0 -14 -9 0 -9 -5 0 -21 8 -16 8 -20 -1 -14 -9 6
-9 2 -1 -14 9 -16 9 -21 -1 -21 -8 0 -9 -3 -3 -8 14 -10 19 -69 6 -77 -6 -3
-11 -1 -11 6 0 22 -11 2 -14 -25 -2 -14 1 -26 7 -26 5 0 3 -7 -4 -17 -10 -12
-11 -17 -2 -20 7 -2 9 -11 6 -19 -3 -8 0 -21 7 -29 7 -9 8 -15 2 -15 -5 0 6
-30 26 -66 19 -37 30 -64 23 -60 -8 5 -9 0 -3 -16 10 -27 9 -39 -1 -55 -5 -7
-4 -13 1 -13 10 0 9 -13 -2 -77 -4 -24 -12 -43 -17 -43 -6 0 -5 -8 1 -20 6
-11 18 -20 27 -20 10 0 14 -6 10 -20 -3 -11 -1 -20 5 -20 6 0 8 -7 4 -15 -3
-8 -1 -15 4 -15 6 0 9 -3 9 -7 -3 -17 14 -73 22 -73 5 0 9 -9 9 -19 0 -20 17
-31 36 -24 7 2 10 12 7 22 -3 10 -1 21 5 25 8 5 64 -71 78 -107 3 -10 12 -17
20 -17 8 0 14 -4 14 -8 0 -13 30 -10 31 2 5 63 16 99 29 91 5 -3 17 -2 26 3
11 6 13 12 6 16 -6 4 -9 13 -5 21 3 9 -1 15 -8 15 -11 0 -11 3 1 10 11 7 11
10 2 10 -7 0 -10 5 -7 10 3 6 2 10 -3 10 -5 0 -9 7 -9 15 0 27 13 16 26 -22
22 -65 36 -93 44 -93 5 0 5 -4 2 -10 -3 -5 -3 -10 2 -11 4 0 17 -2 28 -4 16
-3 55 24 55 38 0 3 8 22 17 43 9 22 16 43 15 47 -2 5 2 6 7 3 6 -4 8 7 4 29
-5 30 -3 34 11 29 12 -4 14 -10 6 -19 -5 -6 -7 -14 -4 -18 9 -8 -18 -77 -31
-77 -5 0 -3 -5 5 -10 8 -5 10 -10 4 -10 -6 0 -11 -7 -11 -15 0 -8 4 -12 9 -9
4 3 8 1 8 -5 0 -6 7 -8 15 -5 16 7 39 -40 31 -63 -3 -7 -1 -13 5 -13 6 0 7 -4
4 -10 -3 -5 -2 -10 3 -10 13 0 64 41 58 47 -3 3 6 17 19 31 13 14 22 29 19 34
-3 4 -1 8 4 8 5 0 12 9 15 21 8 29 30 13 24 -17 -6 -35 8 -38 36 -8 23 24 42
75 38 98 -1 5 6 17 15 27 12 13 13 19 4 19 -10 0 -10 3 0 15 7 8 18 15 24 15
6 0 11 16 12 35 0 19 -4 35 -8 35 -5 0 -7 4 -3 9 3 5 1 12 -4 16 -5 3 -9 26
-8 50 1 25 -2 45 -8 45 -7 0 -7 3 0 8 6 4 10 18 9 32 -1 26 23 79 41 92 6 4 6
8 1 8 -5 0 -3 7 4 15 6 8 9 19 5 25 -3 5 -1 10 6 10 9 0 9 3 0 14 -9 11 -8 15
6 20 10 4 13 10 8 14 -12 9 -19 35 -7 28 5 -3 8 11 7 32 -2 25 -8 38 -19 40
-19 4 -23 61 -5 79 7 7 8 13 0 17 -7 4 -7 15 -1 31 6 16 5 25 -3 29 -7 2 -8 5
-1 5 15 1 -16 101 -32 101 -6 0 -18 -8 -25 -17 -10 -11 -10 -14 -1 -9 6 4 12
2 12 -3 0 -6 -4 -11 -9 -11 -8 0 -17 -21 -26 -55 -1 -5 -3 -13 -5 -17 -1 -5
-3 -11 -4 -15 -1 -5 -7 -18 -14 -29 -6 -12 -9 -24 -6 -26 3 -3 -4 -8 -14 -10
-19 -5 -24 15 -8 40 4 7 1 15 -8 18 -9 3 -14 10 -11 14 3 4 -2 13 -11 20 -12
11 -12 15 -2 21 10 7 10 9 0 9 -7 0 -17 11 -22 25 -10 26 -35 34 -42 13 -6
-17 -38 14 -38 36 0 9 -5 16 -11 16 -5 0 -7 5 -4 10 3 6 -1 13 -9 16 -9 3 -16
12 -16 20 0 8 -4 14 -9 14 -5 0 -13 9 -16 20 -3 11 -13 20 -21 20 -8 0 -12 5
-9 10 3 6 -1 10 -10 10 -9 0 -13 5 -10 10 3 6 0 10 -9 10 -8 0 -16 5 -18 12
-3 7 -16 13 -31 13 -14 1 -24 -2 -21 -7z m-266 -635 c0 -8 4 -12 9 -9 5 3 14
-8 21 -24 7 -16 15 -28 19 -26 3 2 12 -2 19 -10 7 -8 10 -14 6 -14 -3 0 -1 -6
5 -13 6 -8 8 -17 4 -21 -4 -4 -12 2 -18 13 -10 20 -11 20 -23 1 -10 -16 -10
-20 0 -20 9 0 8 -3 -2 -10 -23 -15 -33 -12 -27 10 3 11 2 18 -2 16 -4 -3 -13
18 -21 47 -7 29 -22 60 -34 70 -17 15 -18 20 -6 27 17 10 50 -15 50 -37z m640
26 c0 -5 -6 -9 -14 -9 -18 0 -26 -12 -32 -47 -3 -15 -9 -32 -15 -39 -5 -6 -6
-14 -3 -17 4 -3 3 -14 -1 -24 -5 -10 -9 -24 -11 -32 -1 -8 -8 -17 -14 -21 -7
-4 -11 -11 -9 -16 4 -12 -74 -50 -93 -46 -5 1 -8 -3 -8 -9 0 -5 -5 -7 -12 -3
-7 4 -8 3 -4 -5 5 -7 -1 -20 -13 -30 -17 -15 -19 -23 -11 -49 9 -34 5 -38 -20
-22 -12 8 -12 10 -1 10 10 0 11 3 2 13 -6 8 -8 17 -4 20 3 4 1 7 -5 7 -7 0
-12 4 -12 10 0 16 -33 51 -65 67 -16 9 -27 13 -24 9 3 -3 -12 -24 -33 -47 -21
-22 -36 -44 -33 -50 4 -5 1 -9 -6 -9 -7 0 -9 -3 -6 -6 3 -4 2 -15 -4 -25 -7
-13 -6 -19 1 -19 6 0 8 -4 5 -10 -3 -5 -11 -10 -16 -10 -6 0 -8 4 -5 8 2 4 1
14 -4 22 -5 9 -4 20 3 28 13 16 21 56 9 48 -10 -6 -43 20 -40 32 2 5 -1 10 -6
10 -5 0 -12 5 -16 12 -4 6 -20 13 -36 16 -34 6 -69 37 -60 53 8 12 27 15 25 4
-3 -20 2 -27 11 -13 7 12 11 10 19 -10 5 -14 10 -21 10 -16 1 5 7 3 15 -3 11
-9 17 -8 28 2 8 8 27 13 45 11 21 -3 36 3 49 17 11 12 18 24 16 27 -2 4 1 8 7
10 6 2 11 -1 11 -6 0 -6 7 -18 16 -26 12 -13 18 -13 29 -3 7 6 11 15 8 20 -2
4 1 7 7 7 6 0 8 4 5 10 -3 6 1 7 10 4 9 -4 14 -13 11 -21 -3 -8 3 -24 14 -35
11 -12 20 -17 20 -11 0 6 12 8 28 6 15 -3 37 -6 49 -6 11 -1 19 -5 17 -9 -3
-4 2 -5 10 -2 9 3 13 10 10 15 -3 5 0 9 5 9 6 0 10 6 9 13 -2 7 5 11 16 9 11
-2 15 1 11 7 -3 6 0 11 7 12 9 0 10 2 1 5 -7 3 -9 12 -6 20 3 8 0 14 -6 14
-16 0 -13 30 4 36 8 4 12 10 9 15 -3 5 0 9 5 9 6 0 11 5 11 10 0 16 60 71 71
65 5 -4 9 -10 9 -16z m-134 -118 c-4 -5 -2 -11 3 -13 5 -1 3 -11 -4 -22 -13
-17 -14 -16 -11 10 4 34 4 34 12 34 3 0 3 -4 0 -9z"/>
<path d="M1529 3876 c0 0 -2 -11 -5 -23 -2 -15 1 -23 10 -23 12 0 30 -34 27
-52 -1 -5 6 -8 15 -8 8 0 12 -4 9 -10 -3 -5 -2 -10 4 -10 6 0 34 -17 62 -39
45 -34 121 -68 142 -63 4 1 7 -3 7 -10 0 -6 3 -9 6 -5 3 3 17 2 30 -3 17 -7
24 -6 24 3 0 8 4 7 10 -3 7 -11 10 -11 10 -2 0 7 5 10 11 7 15 -10 59 -13 59
-5 0 4 12 6 26 4 15 -1 28 3 31 12 8 22 -36 64 -68 64 -15 0 -31 5 -34 10 -3
6 -2 10 2 10 5 0 18 7 29 16 10 8 12 12 4 8 -12 -5 -13 -4 -3 6 10 11 7 18
-15 37 -15 12 -29 18 -30 13 -3 -7 -9 -7 -18 1 -7 6 -21 9 -29 5 -8 -3 -15 -1
-15 5 0 6 -9 8 -20 4 -11 -4 -20 -2 -20 4 0 6 -5 11 -11 11 -5 0 -8 -3 -5 -8
2 -4 -13 -6 -35 -4 -21 2 -39 7 -39 11 0 6 -31 11 -77 14 -7 0 -13 5 -13 10 0
5 -7 4 -15 -3 -8 -7 -15 -8 -15 -2 0 7 -47 24 -51 18z m361 -146 c0 -5 -5 -10
-11 -10 -5 0 -7 5 -4 10 3 6 8 10 11 10 2 0 4 -4 4 -10z"/>
<path d="M4860 3856 c0 -4 -7 -6 -15 -2 -8 3 -15 1 -15 -4 0 -5 -7 -7 -15 -4
-8 4 -22 1 -30 -6 -12 -10 -15 -10 -15 0 0 9 -4 9 -12 2 -7 -6 -42 -13 -78
-17 -36 -3 -71 -6 -77 -7 -7 -1 -13 -6 -13 -11 0 -5 -6 -7 -14 -4 -8 3 -22 -3
-32 -14 -10 -11 -12 -19 -6 -19 7 0 11 -3 11 -7 -3 -20 2 -34 11 -28 6 3 7 -1
4 -9 -3 -9 -16 -16 -28 -16 -13 0 -33 -11 -46 -25 -13 -14 -18 -25 -12 -25 6
0 9 -6 6 -14 -3 -8 0 -17 7 -22 8 -4 10 -3 5 4 -4 7 -2 12 3 12 6 0 11 -6 11
-12 0 -9 4 -8 10 2 9 13 10 13 10 0 0 -13 1 -13 10 0 5 8 10 10 10 3 0 -6 8
-9 18 -7 9 2 37 6 62 8 25 1 58 8 73 15 16 6 35 11 43 11 8 0 14 4 14 9 0 5
16 15 35 22 19 7 35 17 35 21 0 4 7 8 16 8 8 0 14 3 12 8 -5 9 49 61 56 54 4
-3 6 0 6 6 0 7 8 21 17 31 33 39 26 51 -28 48 -27 -1 -49 -6 -49 -11z"/>
<path d="M4415 3585 c-24 -19 -27 -25 -14 -30 25 -10 19 -32 -8 -27 -12 2 -23
9 -23 16 0 7 -3 6 -9 -2 -4 -7 -18 -14 -29 -15 -14 -1 -22 -8 -22 -19 0 -19
37 -58 56 -58 7 0 14 -5 16 -10 2 -6 13 -12 26 -13 12 0 22 -5 22 -9 0 -4 7
-5 15 -2 8 4 15 1 15 -4 0 -6 9 -9 20 -7 11 2 22 0 25 -6 4 -5 14 -5 27 2 15
8 19 8 14 0 -5 -8 0 -8 18 -1 14 5 26 6 26 1 0 -6 34 -7 50 -1 3 1 8 2 13 1 4
0 7 3 7 7 0 8 14 12 53 13 9 0 17 4 17 9 0 5 10 12 23 16 12 4 30 16 40 28 19
21 18 21 -15 30 -18 6 -35 12 -38 16 -3 3 -21 7 -40 9 -19 2 -37 6 -40 10 -3
3 -16 8 -30 9 -14 2 -31 9 -39 15 -12 10 -13 9 -6 -3 7 -11 3 -11 -18 3 -15
10 -32 15 -38 11 -6 -4 -15 -1 -19 5 -4 7 -18 13 -31 14 -13 0 -26 4 -29 9 -3
4 -19 -4 -35 -17z"/>
<path d="M1990 3588 c-19 -5 -41 -9 -47 -10 -7 -1 -13 -6 -13 -11 0 -5 -7 -7
-15 -3 -8 3 -15 1 -15 -5 0 -6 -4 -8 -8 -5 -14 9 -82 -14 -82 -27 0 -7 -4 -6
-10 3 -7 11 -10 11 -10 2 0 -7 -4 -11 -8 -8 -5 3 -31 -2 -60 -10 -37 -11 -49
-19 -45 -30 5 -14 59 -48 66 -42 2 2 11 -3 21 -11 9 -8 19 -11 23 -8 3 4 12 2
19 -4 8 -6 21 -9 29 -5 11 4 14 2 9 -6 -5 -8 -2 -9 9 -5 9 3 19 2 23 -4 4 -6
11 -6 20 2 11 9 14 9 14 -1 0 -10 3 -10 15 0 8 7 15 8 15 3 0 -5 9 -9 20 -9
11 0 20 4 20 8 0 4 3 7 8 6 13 -3 86 22 131 45 49 25 62 56 31 75 -12 7 -20 8
-20 2 0 -6 -9 -6 -24 0 -14 5 -27 5 -33 -1 -6 -6 -10 -4 -10 6 0 8 4 15 9 15
14 0 4 34 -12 42 -19 8 -27 8 -70 -4z"/>
<path d="M1445 3559 c-2 -3 -23 -6 -46 -8 -24 -1 -49 -7 -55 -12 -8 -7 -13 -6
-16 2 -3 9 -9 9 -26 0 -12 -7 -27 -9 -32 -6 -6 3 -10 1 -10 -6 0 -8 -4 -8 -15
1 -8 7 -15 8 -15 3 0 -7 -15 -8 -40 -3 -22 4 -40 4 -40 -1 0 -4 -13 -4 -30 1
-19 5 -30 5 -30 -1 0 -6 -8 -5 -20 1 -11 6 -20 7 -20 3 0 -10 -91 -4 -105 7
-5 5 -23 3 -39 -4 l-29 -12 53 -42 c29 -23 57 -42 62 -42 5 0 6 -4 3 -10 -3
-6 1 -7 9 -4 9 3 16 2 16 -3 0 -11 150 -89 163 -85 5 1 23 -4 40 -12 49 -21
71 -29 79 -28 4 1 24 -5 46 -12 25 -9 44 -11 55 -4 12 6 17 5 17 -3 0 -8 4 -8
15 1 8 7 15 8 15 3 0 -13 123 -11 132 2 5 6 8 5 8 -3 0 -10 5 -10 21 -1 16 8
20 8 14 -1 -6 -9 -3 -9 13 -1 11 6 22 7 24 2 2 -4 20 -1 40 8 37 16 41 38 7
45 -63 14 -79 20 -79 28 0 5 -4 7 -9 4 -11 -7 -107 56 -139 91 -22 24 -22 26
-6 44 9 11 23 19 31 19 8 0 12 4 9 9 -3 5 4 11 16 14 12 4 19 10 14 14 -9 9
-96 11 -101 2z"/>
<path d="M4933 3554 c0 -7 3 -12 6 -12 14 3 40 -15 35 -23 -3 -5 1 -9 9 -9 8
0 20 -7 28 -16 11 -13 8 -20 -19 -45 -18 -17 -32 -28 -32 -25 0 4 -9 -2 -19
-11 -38 -35 -49 -42 -55 -35 -4 3 -11 0 -16 -8 -8 -13 -21 -17 -69 -22 -13 -1
-26 -8 -28 -15 -3 -7 -12 -13 -19 -13 -12 0 -12 -4 -4 -20 6 -11 15 -18 20
-15 4 3 19 1 32 -4 15 -5 31 -5 41 0 12 7 17 6 17 -2 0 -8 4 -8 15 1 9 7 15 8
15 2 0 -13 122 -11 132 3 5 6 8 5 8 -3 0 -9 5 -10 17 -3 10 5 26 5 40 0 15 -5
27 -4 35 4 7 7 24 12 38 12 14 0 34 6 46 13 11 6 24 9 27 5 4 -3 7 0 7 7 0 7
3 11 6 7 4 -3 19 0 34 8 15 8 30 11 34 8 3 -4 6 -1 6 6 0 7 4 10 9 6 5 -3 12
-1 16 5 4 6 11 8 16 5 5 -4 9 -1 9 5 0 6 4 9 9 5 5 -3 15 0 23 7 7 7 27 20 43
28 17 8 38 23 48 34 9 10 17 15 17 10 0 -5 7 0 15 10 8 11 15 17 15 13 0 -3
11 5 25 19 24 24 35 51 15 39 -5 -3 -10 -2 -10 4 0 10 -19 9 -37 -2 -7 -5 -13
-5 -13 -1 0 3 -7 1 -15 -6 -8 -7 -15 -9 -15 -4 0 5 -22 9 -50 9 -27 0 -50 -3
-50 -6 0 -4 -18 -3 -40 1 -22 4 -40 4 -40 -1 0 -4 -13 -4 -30 1 -18 5 -30 5
-30 0 0 -6 -10 -6 -25 0 -14 5 -25 6 -25 3 0 -4 -5 -2 -11 4 -6 6 -17 9 -24 7
-6 -3 -30 -1 -53 5 -30 6 -42 6 -42 -3 0 -8 -2 -8 -8 0 -4 6 -15 10 -24 8 -10
-1 -18 1 -18 6 0 11 -33 7 -42 -5 -5 -6 -8 -6 -8 2 0 6 -8 11 -18 10 -10 0
-19 -7 -19 -13z"/>
<path d="M2196 3465 c-16 -9 -35 -23 -43 -33 -10 -11 -12 -12 -8 -2 4 8 -5 0
-20 -17 -14 -18 -31 -33 -36 -33 -6 0 -21 -13 -34 -28 -13 -15 -39 -36 -58
-47 -36 -19 -46 -50 -20 -59 7 -3 13 -2 13 2 0 4 29 6 64 4 53 -3 73 1 125 25
34 16 58 32 55 36 -4 4 -1 7 8 7 14 0 80 70 81 87 0 4 7 13 16 20 20 14 14 20
-24 27 -17 3 -32 1 -37 -7 -5 -8 -13 -5 -28 11 -25 26 -18 25 -54 7z"/>
<path d="M4227 3465 c-5 -13 -50 -14 -59 0 -5 6 -8 5 -8 -3 0 -7 -4 -11 -9 -7
-16 9 -6 -38 15 -72 10 -18 25 -33 32 -33 6 0 12 -7 12 -16 0 -8 4 -13 9 -10
5 3 11 -1 15 -9 3 -8 12 -15 21 -15 8 0 15 -5 15 -11 0 -5 5 -7 10 -4 6 3 10
1 10 -5 0 -6 5 -8 10 -5 6 3 10 2 10 -2 0 -9 24 -14 72 -17 14 0 24 -4 22 -8
-5 -8 103 -1 117 8 11 6 -39 56 -82 81 -16 10 -29 23 -29 30 0 11 -8 15 -22
13 -2 -1 -27 22 -57 49 -52 49 -95 63 -104 36z"/>
<path d="M2577 3450 c-16 -12 -26 -25 -23 -28 4 -3 -1 -14 -11 -24 -9 -10 -13
-18 -9 -18 4 0 0 -7 -8 -16 -9 -8 -14 -19 -11 -24 3 -5 1 -10 -4 -12 -5 -1
-11 -10 -13 -18 -2 -8 -9 -21 -17 -29 -10 -11 -10 -16 -2 -19 6 -2 8 -8 5 -13
-3 -6 6 -7 23 -3 77 18 171 123 160 180 -2 13 1 25 7 27 6 3 3 8 -8 12 -10 5
-26 3 -37 -3 -12 -8 -19 -8 -21 -1 -2 6 -16 1 -31 -11z"/>
<path d="M3796 3455 c-2 -6 6 -32 19 -58 12 -26 21 -47 19 -47 -1 0 10 -13 24
-30 15 -16 32 -30 39 -30 7 0 13 -7 13 -15 0 -8 5 -15 10 -15 21 0 26 -1 45
-14 17 -11 22 -11 33 0 7 8 9 14 5 14 -5 0 -10 10 -10 22 -1 13 -7 24 -13 26
-5 2 -10 12 -10 23 0 10 -4 19 -10 19 -5 0 -10 7 -10 15 0 8 -4 15 -10 15 -5
0 -7 7 -4 15 4 8 1 15 -6 15 -6 0 -8 5 -5 10 3 6 1 10 -5 10 -6 0 -8 5 -5 10
3 6 -1 10 -9 10 -9 0 -16 5 -16 11 0 8 -4 8 -14 0 -10 -8 -16 -9 -21 -2 -8 14
-53 10 -59 -4z"/>
<path d="M2382 3424 c-18 -19 -31 -35 -30 -36 1 -2 -6 -12 -15 -23 -9 -11 -17
-24 -16 -28 0 -5 -11 -19 -24 -31 -39 -36 -51 -64 -34 -80 8 -9 19 -11 27 -6
8 5 18 6 22 4 4 -3 8 0 8 6 0 6 5 8 10 5 6 -3 10 -1 10 5 0 6 4 9 9 6 13 -8
83 46 118 90 39 50 58 105 41 115 -7 5 -15 3 -19 -2 -5 -9 -48 -7 -66 4 -5 2
-23 -11 -41 -29z"/>
<path d="M3975 3450 c-13 -21 -15 -40 -4 -40 4 0 6 -7 3 -15 -4 -8 -1 -15 5
-15 6 0 11 -7 11 -15 0 -8 5 -15 12 -15 6 0 9 -3 5 -6 -7 -7 41 -54 55 -54 5
0 7 -4 4 -8 -2 -4 10 -14 27 -22 18 -7 35 -17 38 -22 3 -5 17 -10 30 -11 13 0
27 -6 31 -11 5 -7 13 -3 22 9 9 12 11 22 4 26 -5 3 -9 10 -9 15 0 5 -9 19 -19
32 -11 12 -20 27 -20 32 0 6 -4 10 -8 10 -4 0 -16 14 -26 30 -37 64 -61 81
-105 77 -23 -2 -42 1 -44 7 -2 6 -7 4 -12 -4z"/>
<path d="M2784 3412 c-12 -8 -28 -43 -26 -54 1 -5 -2 -8 -8 -8 -5 0 -10 -7
-10 -15 0 -8 -5 -15 -12 -15 -6 0 -8 -3 -5 -6 4 -4 -3 -20 -14 -36 -16 -21
-19 -36 -13 -56 4 -15 7 -30 6 -34 -1 -5 3 -8 9 -8 5 0 7 -4 4 -10 -3 -5 -1
-10 5 -10 6 0 8 -5 5 -10 -3 -6 1 -13 9 -16 9 -3 16 -12 16 -20 0 -8 5 -14 12
-14 6 0 8 -3 5 -7 -4 -3 2 -12 13 -20 14 -10 25 -11 37 -4 10 6 13 11 6 11 -7
0 -10 6 -7 14 3 8 0 17 -5 21 -6 3 -9 11 -6 16 4 5 3 9 -2 9 -4 0 -9 19 -11
42 -1 23 -8 46 -15 50 -9 6 -9 8 1 8 7 0 11 4 8 8 -3 5 1 20 9 35 9 17 10 27
3 27 -7 0 -6 5 2 15 6 8 9 19 5 25 -3 5 -1 10 6 10 10 0 10 3 2 11 -6 6 -9 17
-7 24 6 16 -8 26 -22 17z"/>
<path d="M3689 3413 c-1 -4 -1 -11 0 -15 0 -5 -3 -8 -8 -8 -10 0 -9 -25 2 -36
3 -4 2 -15 -4 -25 -5 -11 -6 -19 -1 -19 5 0 9 -6 10 -12 10 -82 10 -98 1 -98
-6 0 -7 -4 -4 -10 3 -5 1 -19 -5 -30 -8 -15 -8 -20 2 -20 9 -1 8 -4 -3 -13 -9
-7 -14 -18 -11 -26 2 -8 0 -11 -5 -8 -5 3 -10 0 -10 -8 0 -29 26 -22 63 16 21
21 35 39 30 39 -4 0 0 7 8 16 9 8 16 22 16 30 0 8 3 14 8 14 4 0 7 11 7 25 0
14 -4 25 -8 25 -5 0 -6 4 -3 8 3 5 -5 24 -17 43 -12 19 -23 41 -25 49 -2 8 -8
17 -13 18 -5 2 -9 12 -9 22 0 19 -19 39 -21 23z"/>
<path d="M1776 3269 c-10 -10 -23 -16 -28 -13 -5 3 -17 -4 -28 -16 -10 -12
-22 -22 -27 -22 -15 -1 -58 -23 -65 -33 -5 -6 -8 -6 -8 0 0 6 -5 3 -10 -5 -5
-8 -13 -15 -17 -15 -4 -1 -28 -12 -53 -25 -25 -13 -48 -23 -52 -22 -5 1 -8 -3
-8 -9 0 -5 -4 -7 -10 -4 -5 3 -10 1 -10 -5 0 -6 -4 -8 -10 -5 -5 3 -10 1 -10
-5 0 -7 -7 -10 -15 -7 -8 4 -17 2 -20 -4 -4 -5 -10 -7 -15 -4 -4 3 -13 -2 -20
-11 -7 -8 -19 -13 -27 -10 -7 3 -13 1 -13 -5 0 -6 -7 -8 -15 -5 -9 3 -18 -1
-22 -10 -8 -21 27 -42 75 -46 6 -1 12 -4 12 -7 0 -3 21 -7 47 -9 25 -1 52 -7
59 -13 8 -7 14 -6 19 1 4 7 16 10 26 7 11 -3 19 -1 19 4 0 6 8 5 20 -1 11 -6
20 -7 20 -3 0 4 26 8 58 8 31 0 63 4 70 9 7 5 12 4 12 -3 0 -8 8 -7 28 2 22
12 63 25 92 31 22 5 100 43 100 49 0 4 6 7 14 7 8 0 21 7 30 15 8 9 17 15 18
13 2 -1 14 5 28 15 13 9 20 17 15 17 -6 0 -3 5 5 10 13 9 13 10 0 11 -51 5
-70 4 -70 -5 0 -5 -3 -7 -6 -3 -3 3 -17 2 -30 -3 -13 -5 -24 -6 -24 -2 0 4
-16 8 -36 10 -20 1 -41 5 -48 9 -6 4 -19 9 -29 10 -20 3 -55 33 -39 33 17 0
39 75 25 83 -5 2 -17 -4 -27 -14z"/>
<path d="M4680 3282 c0 -7 -5 -10 -11 -6 -8 4 -8 0 0 -15 7 -11 8 -21 4 -21
-4 0 -3 -4 3 -8 7 -4 14 -18 15 -30 3 -19 -3 -26 -32 -36 -20 -7 -48 -12 -63
-11 -14 0 -26 -3 -26 -8 0 -5 -10 -5 -21 -2 -16 5 -19 4 -14 -5 5 -8 4 -11 -2
-7 -5 3 -25 9 -44 12 -18 3 -36 11 -40 16 -3 6 -11 4 -19 -6 -7 -8 -10 -18 -7
-22 4 -3 1 -13 -6 -22 -10 -14 -10 -14 4 -4 13 11 19 9 34 -7 10 -11 24 -20
30 -20 7 0 18 -7 25 -15 7 -8 16 -12 21 -9 5 3 18 -4 30 -14 11 -11 28 -19 37
-17 9 1 19 -1 22 -6 5 -7 48 -19 78 -21 6 -1 12 -5 12 -9 0 -5 7 -6 15 -3 8 4
15 1 15 -5 0 -8 6 -9 18 -2 11 6 23 6 28 2 10 -10 104 -19 104 -11 0 3 27 3
60 0 33 -3 60 -3 60 0 0 3 15 5 32 4 18 -1 36 4 40 10 5 7 8 7 8 -2 0 -10 8
-8 28 6 21 16 32 18 46 10 14 -8 17 -7 12 1 -4 6 -2 11 3 11 6 0 11 6 11 14 0
15 -21 26 -51 26 -11 0 -22 7 -26 16 -5 13 -7 13 -14 2 -7 -10 -9 -11 -9 0 0
7 -4 11 -9 7 -5 -3 -12 -1 -16 5 -3 5 -15 10 -26 10 -10 0 -19 5 -19 10 0 6
-8 10 -19 10 -10 0 -24 7 -31 15 -7 9 -15 13 -18 11 -3 -3 -17 3 -32 14 -16
11 -35 20 -44 20 -9 0 -16 5 -16 10 0 6 -7 10 -15 10 -8 0 -15 5 -15 12 0 6
-3 9 -6 5 -3 -3 -11 -2 -18 4 -23 19 -88 60 -99 62 -7 1 -15 7 -19 12 -5 6 -8
5 -8 -3z"/>
<path d="M2101 3145 c-1 -6 -18 -29 -40 -53 -21 -23 -36 -42 -33 -42 3 0 -5
-8 -16 -19 -12 -10 -19 -21 -15 -25 4 -4 -3 -9 -15 -13 -12 -3 -22 -9 -22 -13
0 -13 -108 -119 -114 -112 -3 3 -6 -3 -6 -13 0 -10 -3 -15 -6 -12 -9 9 -46
-41 -39 -52 3 -6 12 -8 20 -4 8 3 15 0 15 -7 0 -6 5 -8 11 -5 5 4 25 9 42 12
18 3 37 6 42 7 6 1 17 6 25 11 8 5 17 10 20 10 22 3 80 28 80 36 0 5 3 8 8 7
13 -4 82 26 82 36 0 5 3 6 6 3 4 -4 15 3 25 15 11 11 19 18 19 15 0 -12 97 88
104 106 3 10 10 16 15 12 11 -6 36 34 33 53 -2 6 3 12 10 12 9 0 9 3 -1 13
-10 9 -15 9 -18 0 -2 -7 -11 -9 -20 -6 -12 5 -14 3 -8 -7 6 -10 4 -12 -7 -7
-9 3 -21 0 -27 -6 -13 -13 -31 -17 -93 -22 l-48 -4 0 35 c0 19 -4 33 -9 30 -5
-4 -12 0 -14 6 -3 7 -6 8 -6 3z"/>
<path d="M2572 3135 c-11 -17 -78 -56 -85 -48 -4 3 -7 2 -7 -3 0 -5 -11 -11
-25 -12 -22 -2 -30 7 -26 31 0 4 -4 7 -10 7 -5 0 -7 5 -4 10 3 6 0 10 -7 10
-16 0 -51 -54 -41 -64 3 -3 1 -6 -6 -6 -7 0 -10 -4 -7 -8 3 -5 -6 -21 -20 -37
-27 -31 -30 -40 -11 -28 6 4 -3 -12 -21 -35 -19 -23 -30 -42 -25 -42 4 0 4 -4
-2 -8 -5 -4 -28 -34 -50 -67 -39 -58 -50 -86 -31 -84 5 0 13 -5 17 -13 7 -10
9 -10 9 0 0 7 5 10 10 7 6 -3 10 -1 10 5 0 6 5 8 10 5 6 -3 10 -1 10 6 0 7 3
9 6 6 8 -8 39 8 87 45 20 16 37 27 37 25 0 -3 31 24 70 60 38 36 67 69 64 74
-3 5 -1 9 4 9 15 0 82 116 82 142 0 26 -25 34 -38 13z"/>
<path d="M3869 3145 c-5 -20 -2 -32 11 -43 13 -12 13 -12 0 -6 -13 7 -13 6 0
-10 8 -10 15 -25 16 -34 2 -8 10 -19 18 -24 9 -5 16 -15 16 -23 0 -7 18 -32
40 -55 22 -23 40 -45 40 -48 0 -4 23 -23 50 -42 27 -19 50 -38 50 -42 0 -5 7
-8 15 -8 8 0 15 -4 15 -10 0 -5 7 -10 15 -10 8 0 15 -5 15 -12 0 -6 3 -8 7 -5
3 4 14 0 24 -9 10 -9 29 -17 43 -18 14 0 26 -5 26 -9 0 -5 5 -5 10 -2 15 9 12
44 -5 62 -8 8 -12 19 -9 25 4 6 2 8 -3 5 -6 -4 -18 8 -28 26 -26 51 -50 92
-56 97 -3 3 -12 20 -20 38 -8 17 -17 32 -21 32 -5 0 -8 9 -8 20 0 11 -5 20
-12 20 -6 0 -8 3 -5 6 7 8 -30 64 -43 64 -8 0 -25 -48 -21 -63 0 -4 -8 -3 -19
3 -11 6 -20 8 -20 4 0 -3 -6 -1 -13 5 -8 6 -17 8 -20 4 -4 -3 -7 -1 -7 6 0 7
-4 10 -9 7 -5 -4 -11 -3 -13 2 -4 9 -63 52 -72 52 -3 0 -7 -2 -7 -5z"/>
<path d="M4359 3133 c-1 -5 -1 -11 0 -15 0 -5 -3 -8 -8 -8 -5 0 -8 -8 -7 -17
1 -12 -6 -18 -19 -18 -11 0 -23 -4 -27 -10 -5 -6 -8 -6 -8 1 0 7 -6 11 -12 11
-25 -2 -88 15 -88 24 0 5 -9 9 -20 9 -11 0 -20 5 -20 11 0 5 -4 8 -9 4 -11 -6
-10 -45 1 -45 4 0 8 -4 8 -10 0 -9 51 -70 80 -96 61 -53 115 -92 122 -88 4 3
8 0 8 -6 0 -6 4 -9 9 -6 5 4 11 3 13 -1 4 -11 69 -42 95 -46 11 -2 28 -8 35
-15 8 -6 18 -9 21 -5 4 3 7 1 7 -5 0 -6 7 -9 15 -6 8 4 15 2 15 -2 0 -5 17 -9
38 -9 20 0 39 -3 42 -7 3 -3 13 0 24 7 17 13 17 14 -1 39 -10 14 -22 26 -27
26 -5 0 -22 14 -38 30 -15 17 -33 30 -38 30 -6 0 -10 3 -10 8 0 4 -25 34 -55
67 -30 33 -55 63 -55 66 0 8 -76 89 -83 89 -4 0 -8 -3 -8 -7z"/>
<path d="M2712 2985 c-7 -14 -12 -32 -12 -40 0 -8 -5 -15 -11 -15 -5 0 -8 -4
-4 -9 3 -5 1 -13 -5 -16 -8 -5 -8 -11 0 -20 8 -10 8 -15 0 -20 -6 -4 -9 -13
-6 -21 3 -8 1 -14 -5 -14 -6 0 -6 -7 1 -20 8 -14 8 -20 0 -20 -6 0 -9 -4 -6
-8 3 -5 6 -27 7 -50 2 -23 6 -42 10 -42 3 0 7 -11 8 -25 3 -48 4 -55 13 -55 4
0 8 -9 8 -19 0 -21 33 -39 78 -43 6 -1 12 -5 12 -10 0 -5 4 -7 9 -3 14 8 85
-92 101 -140 7 -22 17 -46 23 -52 6 -9 6 -13 -1 -13 -20 0 7 -55 50 -98 55
-57 72 -66 89 -45 12 14 12 16 -1 8 -11 -6 -12 -5 -4 4 13 14 44 4 44 -15 0
-8 5 -14 12 -14 6 0 9 -3 6 -6 -3 -3 14 -26 38 -51 24 -24 44 -49 44 -54 0
-16 41 -9 67 11 14 11 23 20 19 20 -4 0 10 19 31 41 21 23 37 45 36 48 -1 4 7
13 18 20 18 11 21 9 26 -8 3 -12 10 -21 16 -21 16 0 117 109 117 126 0 8 6 14
13 14 8 0 7 4 -3 10 -8 5 -10 10 -4 10 7 0 15 7 18 16 4 10 2 13 -7 8 -8 -5
-7 -2 2 9 7 9 10 17 5 17 -4 0 -3 5 3 11 6 6 9 18 6 25 -3 8 0 14 6 14 6 0 11
6 11 14 0 16 85 107 97 105 4 -1 16 1 26 6 10 4 20 5 24 2 11 -12 49 45 45 66
-1 4 4 23 12 42 10 22 11 35 4 35 -6 0 -3 11 6 25 12 18 13 25 4 25 -9 0 -8 3
2 10 13 8 13 10 0 10 -10 0 -11 3 -2 12 8 8 8 19 -2 43 -9 21 -10 37 -4 48 6
12 5 17 -3 17 -7 0 -9 3 -6 6 3 4 1 16 -5 28 -7 11 -13 29 -15 39 -2 10 -10
26 -19 35 -15 15 -18 14 -31 -3 -9 -13 -10 -21 -3 -23 8 -3 7 -8 -1 -18 -9
-11 -9 -14 1 -14 10 0 10 -3 0 -15 -10 -12 -10 -15 1 -15 9 0 10 -3 4 -8 -13
-9 -15 -42 -3 -42 6 0 5 -6 -2 -15 -10 -12 -10 -15 0 -15 10 0 10 -3 0 -15 -6
-8 -9 -19 -5 -25 3 -5 1 -10 -6 -10 -7 0 -9 -3 -6 -7 4 -3 1 -13 -6 -21 -10
-13 -9 -14 3 -8 8 5 4 -2 -9 -15 -16 -16 -25 -20 -28 -12 -2 7 -14 23 -25 35
l-20 23 5 -22 c3 -13 -1 -24 -10 -27 -8 -3 -12 -10 -8 -15 3 -5 1 -12 -5 -16
-5 -3 -10 -15 -10 -26 0 -10 -4 -19 -10 -19 -5 0 -9 -3 -9 -7 4 -22 -3 -33
-20 -33 -14 0 -17 6 -14 28 8 51 5 72 -12 84 -6 5 -6 8 1 8 17 0 5 46 -17 66
-13 12 -19 13 -19 4 0 -7 -7 -10 -15 -6 -8 3 -15 0 -15 -6 0 -6 -3 -8 -6 -5
-8 8 -79 -29 -112 -58 -27 -23 -52 -77 -52 -111 0 -13 -5 -24 -12 -24 -6 0 -9
-3 -5 -6 3 -4 0 -22 -8 -40 -8 -19 -15 -38 -17 -42 -2 -4 -7 -6 -13 -4 -15 5
-24 24 -18 38 2 6 -1 15 -6 19 -6 3 -9 11 -6 16 4 5 2 9 -3 9 -5 0 -10 6 -11
13 -1 6 -3 23 -5 37 -2 14 -7 34 -11 45 -12 29 -73 87 -85 80 -6 -3 -10 -1
-10 5 0 6 -4 8 -10 5 -5 -3 -10 -2 -10 2 0 5 -15 15 -32 22 -34 14 -72 21 -63
13 3 -3 0 -11 -6 -18 -6 -7 -12 -25 -15 -39 -2 -14 -5 -36 -7 -50 -3 -14 0
-25 6 -25 6 0 2 -10 -9 -22 -10 -12 -13 -18 -6 -14 15 9 16 -10 0 -20 -12 -8
-40 24 -32 37 3 5 1 9 -5 9 -6 0 -8 6 -5 14 3 8 1 17 -5 21 -6 3 -11 14 -11
25 0 28 -30 34 -53 10 l-19 -21 -15 21 c-8 11 -12 27 -9 35 3 8 1 15 -4 15 -5
0 -7 9 -5 20 2 11 0 20 -5 20 -6 0 -6 9 0 24 6 16 5 28 -3 36 -9 10 -9 11 3 5
13 -8 13 -7 1 8 -7 9 -10 17 -5 17 5 0 2 5 -6 10 -11 7 -11 10 -2 10 10 0 10
5 2 20 -7 14 -7 20 0 20 5 0 10 5 10 11 0 5 -4 7 -10 4 -6 -3 -7 1 -4 9 10 27
-22 18 -34 -9z"/>
<path d="M3139 2946 c-7 -12 -5 -36 4 -36 5 0 8 -3 4 -6 -3 -4 3 -24 14 -45
11 -22 17 -39 14 -39 -3 0 6 -12 20 -27 14 -15 25 -31 25 -35 0 -29 63 14 69
47 2 6 10 18 18 28 9 9 13 17 8 17 -4 0 0 11 9 25 9 14 14 31 10 37 -4 7 -3 8
4 4 7 -4 12 -2 12 3 0 6 -5 11 -11 11 -5 0 -7 5 -4 10 4 6 -3 9 -15 7 -12 -2
-26 -10 -31 -18 -5 -8 -9 -9 -9 -4 0 6 -5 2 -11 -7 -14 -24 -41 -22 -71 5 -19
17 -54 31 -59 23z"/>
<path d="M2630 2411 c0 -5 -9 -12 -19 -16 -20 -6 -41 -46 -44 -84 -1 -21 -2
-21 -15 -4 -8 11 -9 19 -2 21 16 6 1 22 -21 22 -10 0 -19 5 -19 10 0 7 -6 7
-20 0 -11 -6 -20 -8 -20 -4 0 3 -7 1 -15 -6 -9 -7 -13 -15 -10 -18 3 -3 0 -11
-6 -19 -9 -10 -8 -13 1 -13 10 0 10 -3 0 -15 -10 -12 -10 -15 1 -15 9 0 10 -3
4 -8 -13 -9 -16 -42 -4 -42 5 0 6 -7 3 -15 -4 -8 0 -23 7 -32 10 -11 11 -17 3
-20 -17 -6 0 -71 24 -94 18 -16 21 -16 26 -2 4 8 1 22 -5 29 -9 11 -8 18 1 29
7 9 8 15 2 15 -5 0 -8 8 -5 18 3 12 -4 21 -24 30 -21 9 -23 11 -5 8 12 -2 22
0 22 5 0 5 3 8 8 7 19 -5 53 15 48 28 -3 8 -1 14 4 14 6 0 10 5 10 11 0 5 -6
7 -12 3 -9 -5 -9 -3 1 9 17 21 34 12 22 -11 -12 -23 11 -46 29 -29 7 7 5 0 -6
-14 -10 -15 -21 -26 -24 -24 -11 7 -2 -55 10 -70 7 -8 9 -15 5 -15 -4 0 -2 -7
5 -15 7 -8 9 -15 4 -15 -4 0 2 -9 14 -20 33 -31 42 -25 39 30 -1 28 1 50 4 50
15 0 -5 60 -22 65 -11 4 -16 12 -12 21 3 9 9 12 12 7 3 -4 16 -8 28 -9 13 0
21 2 18 5 -3 3 5 11 17 18 13 7 17 12 10 13 -18 0 -4 20 14 20 8 0 12 -4 9
-10 -3 -5 -1 -10 4 -10 6 0 10 -6 9 -12 -2 -7 4 -12 12 -10 11 3 10 -2 -4 -17
-12 -13 -14 -21 -7 -21 7 0 9 -4 6 -10 -12 -19 -14 -50 -3 -50 5 0 8 -6 5 -14
-7 -18 27 -73 46 -73 8 0 13 6 10 14 -3 7 -9 13 -14 13 -6 0 -6 8 0 19 6 10 7
21 3 25 -3 4 0 11 8 16 13 8 12 10 -2 10 -9 0 -20 5 -24 12 -4 7 -3 8 4 4 7
-4 12 -2 12 3 0 6 -3 11 -7 11 -5 0 -8 10 -8 23 0 23 29 35 40 17 3 -5 17 0
30 12 19 17 25 31 25 65 0 24 -4 43 -10 43 -5 0 -10 8 -10 18 0 9 -16 28 -35
40 -29 21 -36 22 -52 10 -17 -13 -25 -29 -26 -55 0 -7 -4 -13 -8 -13 -4 0 -6
-8 -4 -18 2 -11 -3 -19 -11 -19 -8 0 -14 4 -14 9 0 4 4 8 9 8 20 0 -12 60 -45
85 -19 14 -34 22 -34 16z"/>
<path d="M3670 2400 c-8 -5 -12 -10 -7 -10 4 0 -7 -13 -25 -30 -18 -16 -27
-30 -20 -30 9 0 8 -6 -3 -24 -10 -15 -12 -26 -6 -30 5 -4 8 -15 6 -26 -3 -18
1 -22 21 -19 4 0 10 -5 14 -11 5 -8 13 -9 21 -4 8 5 21 9 29 9 8 0 21 4 29 9
10 7 12 6 6 -4 -5 -9 -4 -11 3 -6 27 17 4 183 -24 172 -6 -2 -16 0 -20 4 -5 5
-15 5 -24 0z"/>
<path d="M3798 2389 c-9 -10 -14 -20 -10 -23 3 -3 0 -6 -7 -6 -9 0 -12 -13 -9
-45 2 -25 0 -46 -4 -47 -10 -4 18 -39 34 -42 7 -1 19 -6 27 -10 9 -6 12 -5 7
2 -4 7 1 10 14 9 11 -1 20 -5 20 -10 0 -14 -29 -39 -39 -32 -6 3 -6 -6 -1 -24
4 -16 6 -32 2 -35 -3 -3 0 -6 8 -6 9 0 10 -3 1 -13 -8 -10 -7 -17 1 -25 7 -7
8 -12 2 -12 -5 0 -10 -9 -11 -20 -1 -11 4 -20 10 -20 13 0 51 46 53 64 1 6 3
13 4 16 6 17 3 80 -4 80 -4 0 -5 12 -2 28 12 52 13 72 4 72 -5 0 -4 9 2 20 6
12 7 20 1 20 -5 0 -7 9 -4 19 6 24 -28 56 -60 56 -12 0 -29 -7 -39 -16z"/>
<path d="M3951 2353 c-6 -10 -11 -14 -11 -8 0 5 -7 -1 -16 -14 -13 -18 -14
-25 -4 -31 9 -6 9 -9 1 -15 -9 -5 -9 -10 -1 -20 8 -10 7 -14 -2 -18 -10 -4
-10 -6 0 -6 6 -1 12 -7 12 -14 0 -7 9 -18 20 -25 15 -9 20 -9 20 -1 0 7 8 4
20 -6 15 -14 20 -15 20 -4 0 11 2 12 9 1 6 -11 10 -10 16 5 5 10 7 21 7 26 -1
4 4 7 11 7 8 0 7 4 -3 10 -11 7 -11 10 -2 10 10 0 10 5 2 20 -6 11 -8 20 -4
20 3 0 0 7 -7 17 -8 9 -13 19 -12 22 0 3 -3 13 -8 21 -4 8 -9 11 -9 5 0 -5 -5
-3 -10 5 -8 12 -10 12 -10 1 0 -10 -3 -11 -14 -2 -11 10 -17 8 -25 -6z"/>
<path d="M3688 2190 c-12 -21 -13 -31 -4 -40 8 -10 8 -11 -4 -5 -12 6 -12 5
-3 -5 6 -7 9 -19 6 -28 -5 -11 -3 -13 8 -7 8 5 5 -1 -5 -13 -11 -12 -14 -22
-8 -22 6 0 9 -7 5 -15 -4 -13 -2 -14 19 -4 18 8 24 18 22 35 -1 13 1 24 6 24
4 0 10 9 13 20 3 11 1 20 -4 20 -5 0 -2 11 6 24 17 25 12 34 -23 41 -11 2 -24
-7 -34 -25z"/>
<path d="M4250 2172 c0 -9 9 -23 20 -30 11 -7 20 -19 20 -27 0 -8 3 -14 8 -14
20 3 32 -2 32 -14 0 -8 11 -19 25 -25 32 -15 32 -4 0 28 -14 14 -38 39 -55 55
-16 17 -30 33 -30 38 0 4 -4 7 -10 7 -5 0 -10 -8 -10 -18z"/>
<path d="M3970 2163 c0 -5 5 -14 12 -21 7 -7 8 -12 3 -12 -6 0 -11 -20 -12
-45 -1 -25 0 -45 2 -45 2 0 15 10 28 23 18 16 23 32 23 62 -1 36 -4 40 -28 43
-16 2 -28 -1 -28 -5z"/>
<path d="M4237 2070 c-3 -12 -1 -18 5 -14 7 4 7 0 0 -12 -8 -16 1 -30 58 -88
l67 -69 11 32 c7 18 7 31 1 31 -5 0 -9 6 -9 13 0 7 -8 20 -17 29 -10 9 -34 33
-54 55 -43 45 -55 49 -62 23z"/>
<path d="M4250 1945 c0 -8 -5 -15 -12 -15 -9 0 -9 -3 0 -12 7 -7 8 -17 1 -30
-7 -13 -6 -18 2 -18 8 0 9 -4 0 -13 -6 -8 -8 -17 -4 -20 9 -10 10 -60 0 -79
-4 -11 -4 -18 2 -18 5 0 7 -8 4 -18 -5 -22 -45 -18 -75 7 -10 9 -22 15 -26 14
-4 0 -16 4 -27 10 -11 6 -27 12 -35 13 -8 2 -16 8 -18 13 -2 6 -12 11 -23 11
-10 0 -19 5 -19 10 0 6 -7 10 -15 10 -8 0 -15 5 -15 11 0 5 -4 7 -10 4 -5 -3
-10 -1 -10 6 0 7 -3 10 -6 6 -4 -3 -25 3 -48 15 -22 11 -41 19 -42 17 0 -2 -7
1 -15 7 -19 14 -51 26 -45 16 3 -5 -1 -20 -9 -35 -8 -16 -10 -29 -4 -32 5 -4
5 -14 -2 -27 -7 -13 -7 -18 -1 -14 7 4 8 -3 2 -24 -6 -20 -5 -30 2 -30 6 0 6
-6 -2 -15 -7 -8 -8 -15 -3 -15 5 0 10 -7 10 -15 0 -8 -4 -15 -9 -15 -5 0 -6
-6 -1 -12 10 -17 13 -38 4 -38 -4 0 -7 -9 -7 -20 0 -11 3 -20 7 -20 4 0 9 -20
11 -45 2 -25 1 -45 -3 -45 -3 0 -4 -13 -1 -29 4 -28 73 -111 92 -111 5 0 10
-7 10 -15 0 -17 9 -19 30 -5 12 8 13 11 1 19 -11 7 -11 9 0 14 11 4 11 6 1 6
-10 1 -10 6 -2 21 7 13 7 20 1 20 -7 0 -7 9 -1 25 6 16 6 25 0 25 -6 0 -6 9 0
25 7 18 6 25 -2 25 -9 0 -9 3 -1 11 7 7 8 21 3 40 -5 16 -5 29 -1 29 5 0 8 12
7 26 -1 18 5 28 17 30 9 1 17 -2 17 -7 0 -5 7 -9 15 -9 8 0 15 -5 15 -11 0 -5
4 -8 9 -4 5 3 12 1 16 -5 4 -6 11 -8 16 -5 5 4 9 3 9 -2 0 -9 48 -33 67 -33 7
0 13 -5 13 -11 0 -5 4 -8 10 -4 5 3 18 -3 30 -15 11 -11 22 -20 25 -20 3 0 8
0 13 0 4 0 12 -16 18 -35 6 -19 7 -32 1 -28 -5 3 -4 -4 2 -15 8 -15 8 -22 -2
-25 -7 -3 -5 -6 6 -6 9 -1 17 -6 17 -12 0 -6 5 -7 13 -2 16 10 38 10 59 1 9
-5 20 -4 23 2 4 6 10 8 15 5 4 -3 11 2 14 11 4 10 2 13 -6 8 -7 -5 -8 -3 -3 6
11 18 14 80 3 80 -5 0 -6 6 -2 12 11 17 12 48 3 48 -5 0 -4 12 2 27 5 14 6 29
2 32 -7 5 -9 27 -3 41 7 20 4 80 -4 80 -6 0 -4 5 4 10 11 7 11 10 2 10 -10 0
-10 5 -2 20 7 13 7 20 1 20 -6 0 -8 6 -6 13 5 14 -38 67 -55 67 -5 0 -10 7
-10 16 0 8 -4 12 -10 9 -5 -3 -10 0 -10 7 0 7 -9 19 -20 26 -17 10 -20 10 -20
-3z"/>
<path d="M2935 1880 c3 -5 1 -10 -5 -10 -6 0 -8 -12 -5 -30 3 -17 1 -39 -5
-50 -6 -12 -7 -20 -1 -20 5 0 8 -8 6 -17 -2 -10 -4 -18 -5 -18 -5 0 -6 -46 -1
-50 8 -4 5 -74 -3 -82 -3 -4 -1 -12 5 -20 6 -7 7 -13 2 -13 -5 0 -10 -7 -10
-15 0 -8 4 -15 9 -15 5 0 4 -10 -3 -21 -8 -16 -8 -20 1 -14 9 6 9 2 1 -14 -9
-16 -9 -21 0 -21 8 0 8 -5 -1 -16 -11 -13 -9 -19 13 -42 16 -16 27 -21 27 -13
0 11 3 11 15 1 12 -10 15 -10 15 0 0 9 4 9 13 2 8 -7 18 -7 27 -2 8 5 17 7 21
4 4 -2 9 3 13 11 3 8 0 15 -6 15 -9 0 -9 3 -1 11 6 6 8 23 3 45 -5 19 -4 32 1
28 5 -3 9 0 9 5 0 20 23 11 52 -19 15 -16 30 -30 33 -30 2 0 22 -19 43 -41 31
-34 43 -40 61 -34 12 4 20 9 17 13 -4 3 5 13 20 22 14 10 25 20 25 24 -1 3 2
7 6 9 4 1 23 19 41 39 21 23 39 35 48 31 9 -3 12 -9 7 -12 -7 -5 -9 -30 -3
-56 1 -5 2 -13 1 -17 0 -4 15 -23 34 -41 19 -19 35 -39 35 -46 0 -6 9 -11 21
-11 11 0 17 -4 14 -10 -3 -5 1 -10 9 -10 9 0 16 -6 17 -12 0 -7 4 -4 8 7 5 11
6 24 3 30 -8 12 -6 74 2 82 3 3 1 12 -5 20 -6 7 -7 13 -2 13 5 0 10 7 10 15 0
8 -4 15 -9 15 -5 0 -4 10 3 21 8 16 8 20 -1 14 -9 -6 -9 -2 -1 14 9 16 9 21
-1 21 -8 0 -9 3 -3 8 13 9 16 42 4 42 -6 0 -5 10 2 21 8 16 8 20 -1 14 -9 -6
-9 -3 -1 12 7 14 7 23 -1 31 -8 8 -8 12 -2 12 6 0 11 7 11 15 0 8 -4 15 -9 15
-5 0 -4 10 3 21 8 16 8 20 -1 14 -9 -6 -9 -2 -1 14 9 16 9 21 -1 21 -8 0 -9 3
-3 8 13 9 16 42 4 42 -5 0 -6 7 -3 15 4 8 2 15 -4 15 -5 0 -15 -7 -22 -15 -7
-8 -18 -15 -24 -15 -6 0 -22 -15 -35 -33 -14 -17 -51 -56 -83 -84 -32 -29 -56
-53 -54 -53 2 0 -14 -18 -35 -39 -42 -41 -69 -57 -69 -40 0 6 -4 7 -10 4 -5
-3 -10 -2 -10 2 0 12 -139 153 -151 153 -5 0 -9 4 -9 9 0 12 -101 111 -113
111 -4 0 -5 -4 -2 -10z"/>
<path d="M1684 1842 c-17 -11 -25 -58 -14 -86 7 -18 6 -26 -1 -26 -8 0 -7 -5
1 -15 10 -12 10 -15 -1 -15 -11 0 -11 -2 1 -10 8 -5 10 -10 4 -10 -7 0 -14
-11 -16 -25 -3 -14 -1 -25 3 -25 5 0 4 -11 -1 -25 -5 -14 -6 -25 -1 -25 11 0
9 -19 -3 -39 -6 -10 -5 -12 3 -7 8 5 10 0 7 -18 -3 -14 -7 -30 -11 -36 -3 -5
-2 -10 3 -10 6 0 8 -8 5 -18 -2 -10 5 -29 16 -43 11 -13 20 -18 21 -11 0 9 6
10 18 4 9 -4 128 -7 265 -7 193 1 250 4 260 15 10 10 9 11 -3 5 -13 -8 -13 -6
-2 7 7 9 9 19 4 22 -9 5 -8 59 3 75 3 6 1 11 -6 11 -8 0 -8 4 2 16 10 13 10
17 0 24 -9 5 -10 9 -2 14 6 4 8 13 4 19 -9 15 -10 40 -1 47 4 3 -2 17 -14 30
-11 14 -18 21 -15 15 3 -6 -12 -9 -38 -7 -33 3 -46 9 -55 28 -7 13 -17 21 -21
19 -4 -3 -10 4 -14 15 -3 11 -12 20 -20 20 -8 0 -17 9 -20 20 -3 11 -13 20
-21 20 -8 0 -14 7 -14 16 0 8 -4 12 -10 9 -5 -3 -10 -1 -10 5 0 8 -6 8 -20 0
-15 -8 -20 -8 -20 1 0 16 -13 2 -16 -16 -1 -8 2 -15 7 -15 5 0 9 -6 9 -14 0
-8 9 -18 20 -21 11 -3 20 -14 20 -22 0 -9 3 -13 6 -10 9 8 44 -32 44 -49 0
-18 -32 -10 -44 11 -14 23 -93 101 -128 127 -20 14 -28 16 -28 6 0 -8 -3 -9
-8 -3 -9 12 -42 16 -42 5 0 -4 -11 -7 -25 -6 -14 0 -25 5 -25 9 0 4 -9 3 -19
-3 -12 -6 -21 -6 -23 0 -2 5 -8 6 -14 2z"/>
<path d="M2080 1847 c0 -20 36 -67 48 -62 7 2 11 1 8 -4 -6 -9 30 -51 45 -51
6 0 7 -4 4 -10 -3 -5 4 -10 15 -10 21 0 21 1 -7 34 -15 18 -31 31 -35 29 -5
-2 -8 2 -8 10 0 14 -50 63 -50 49 0 -4 -5 0 -10 8 -5 8 -10 11 -10 7z"/>
<path d="M2323 1843 c-19 -7 -15 -31 7 -45 11 -7 20 -18 20 -25 0 -7 5 -13 11
-13 5 0 7 -6 3 -12 -4 -7 -3 -10 1 -5 8 7 55 -30 55 -43 0 -8 -20 -10 -79 -10
-39 1 -43 -1 -38 -19 3 -12 1 -21 -3 -21 -5 0 -8 -9 -7 -20 1 -11 6 -20 12
-20 5 0 3 -5 -5 -10 -9 -6 -11 -10 -3 -10 9 0 10 -7 4 -22 -4 -13 -5 -35 0
-50 4 -16 4 -28 -1 -28 -5 0 -8 -9 -7 -20 1 -11 6 -20 12 -20 5 0 3 -5 -5 -10
-11 -7 -11 -10 -2 -10 7 0 11 -4 7 -9 -3 -6 2 -14 12 -18 16 -8 35 -8 93 -4
15 1 45 61 31 61 -9 0 -8 31 3 48 4 6 5 16 1 21 -7 12 72 24 125 19 22 -2 40
0 40 4 0 3 14 3 30 -2 17 -5 30 -5 30 0 0 5 6 7 14 4 7 -3 16 2 20 11 3 9 2
13 -4 10 -6 -3 -10 -2 -10 3 0 6 -16 26 -35 45 -19 19 -35 32 -35 29 0 -3 -6
3 -14 13 -8 11 -11 25 -8 33 3 10 7 10 12 2 5 -7 14 -8 33 -1 18 7 27 7 31 -2
3 -9 5 -9 5 0 1 8 10 5 26 -9 23 -20 24 -26 23 -134 -1 -107 1 -114 24 -143
14 -16 28 -28 30 -25 3 2 11 -7 18 -21 7 -14 17 -25 21 -25 4 0 15 -7 23 -16
15 -15 21 -8 17 19 0 4 3 7 9 7 6 0 6 9 0 24 -5 13 -6 27 -3 30 4 3 2 6 -4 6
-6 0 -9 9 -6 20 3 11 8 18 12 16 11 -7 7 88 -4 96 -6 5 -5 8 3 8 10 0 10 5 2
20 -6 11 -7 20 -3 20 12 0 10 64 -2 72 -6 5 -5 8 3 8 10 0 10 5 2 20 -6 11 -7
20 -3 20 4 0 8 16 8 35 0 19 -4 35 -10 35 -6 0 -5 4 1 8 20 13 -3 55 -26 49
-11 -3 -20 0 -20 5 0 6 -6 5 -15 -2 -8 -7 -15 -8 -15 -3 0 11 -29 11 -48 -1
-7 -4 -12 -2 -12 4 0 8 -6 7 -21 -1 -16 -8 -20 -8 -14 1 6 9 2 9 -14 1 -11 -7
-21 -8 -21 -3 0 5 -7 9 -15 9 -8 0 -15 -5 -15 -10 0 -5 -6 -4 -13 2 -8 6 -16
8 -20 5 -9 -9 -76 -10 -71 -2 8 13 -11 9 -24 -4 -9 -9 -12 -9 -12 0 0 10 -5
10 -21 1 -16 -8 -20 -8 -14 1 6 9 2 9 -14 1 -11 -7 -21 -8 -21 -3 0 5 -7 9
-15 9 -8 0 -15 -5 -15 -11 0 -6 -4 -6 -12 2 -8 8 -17 8 -31 1 -14 -8 -18 -8
-13 0 8 12 7 12 -11 4z"/>
<path d="M3640 1841 c-8 -6 -17 -8 -20 -6 -3 2 -5 -12 -6 -31 0 -19 3 -34 8
-34 5 0 6 -6 2 -12 -11 -17 -12 -48 -3 -48 5 0 4 -12 -2 -27 -5 -14 -6 -29 -2
-32 7 -5 9 -27 3 -41 -7 -20 -4 -80 4 -80 6 0 4 -5 -4 -10 -10 -6 -11 -10 -3
-10 10 0 10 -6 1 -26 -9 -20 -9 -27 1 -33 7 -5 12 -12 11 -17 -1 -5 22 -32 51
-61 40 -40 55 -49 64 -40 12 11 11 69 -1 88 -3 5 -2 9 3 9 8 0 7 150 -1 198
-2 12 0 22 3 22 3 0 5 21 4 47 -2 27 0 55 4 63 12 31 9 50 -13 71 -19 18 -26
20 -39 9 -11 -9 -15 -9 -15 -1 0 9 -5 9 -21 0 -15 -8 -19 -8 -15 0 9 13 6 14
-14 2z"/>
<path d="M4444 1835 c3 -8 2 -15 -2 -15 -4 0 -8 -9 -8 -20 0 -11 4 -20 8 -20
5 0 4 -10 -3 -21 -8 -16 -8 -20 1 -14 9 6 9 2 1 -14 -9 -16 -9 -21 1 -21 8 0
9 -3 3 -8 -13 -9 -16 -42 -4 -42 6 0 5 -10 -2 -21 -8 -16 -8 -20 1 -14 9 6 9
3 1 -12 -7 -14 -7 -23 1 -31 8 -8 8 -12 2 -12 -6 0 -11 -7 -11 -15 0 -8 4 -15
9 -15 5 0 4 -10 -3 -21 -8 -16 -8 -20 1 -14 9 6 9 3 1 -13 -7 -14 -8 -23 -1
-27 6 -4 7 -12 3 -18 -11 -18 -12 -38 -2 -31 5 3 9 -3 10 -13 0 -10 3 -13 6
-6 3 8 11 10 21 5 13 -6 418 -8 516 -3 15 1 17 7 14 36 -2 19 -2 35 2 35 3 0
3 36 0 80 -3 44 -2 80 3 80 4 0 1 15 -7 34 -8 19 -12 37 -8 40 3 3 0 6 -7 6
-7 0 -10 4 -6 9 3 5 -10 22 -30 37 -19 14 -35 33 -35 40 0 8 -5 14 -11 14 -6
0 -17 7 -26 15 -15 16 -33 12 -33 -7 0 -6 3 -9 6 -6 3 4 31 -21 61 -55 50 -54
54 -61 37 -68 -10 -3 -26 -3 -35 2 -9 5 -19 5 -23 2 -3 -3 -6 0 -6 8 0 32
-117 138 -158 143 -37 4 -38 1 -14 -35 23 -35 48 -59 61 -59 6 0 11 -7 11 -15
0 -7 8 -19 18 -24 10 -6 12 -11 4 -11 -7 0 -10 -5 -7 -10 3 -6 -2 -9 -12 -7
-10 1 -18 5 -18 7 -2 15 -103 120 -115 120 -6 0 -10 7 -10 16 0 10 -6 14 -15
10 -8 -3 -15 -1 -15 5 0 6 -7 6 -20 -1 -15 -8 -20 -8 -20 1 0 7 -10 5 -26 -6
-15 -9 -24 -12 -20 -7 9 14 -7 23 -23 12 -8 -4 -27 -4 -43 1 -24 7 -29 5 -24
-6z"/>
<path d="M3416 1356 c1 -12 3 -27 3 -34 1 -7 19 -31 41 -52 23 -22 37 -40 33
-40 -4 0 7 -9 26 -21 24 -14 37 -17 44 -10 8 8 7 11 -1 11 -9 0 -10 5 -4 17
10 16 -3 34 -84 117 -37 37 -61 42 -58 12z"/>
<path d="M2735 1360 c3 -5 1 -10 -5 -10 -7 0 -8 -6 -1 -19 6 -10 8 -21 4 -24
-3 -4 2 -9 11 -13 9 -3 13 -10 10 -15 -3 -5 2 -9 11 -9 9 0 14 -3 12 -7 -3 -5
10 -19 29 -33 18 -14 34 -31 34 -38 0 -10 3 -10 14 0 8 7 12 16 10 20 -2 3 1
8 6 10 6 2 -2 22 -17 45 -15 23 -29 41 -30 39 -2 -2 -19 12 -37 30 -31 31 -65
47 -51 24z"/>
<path d="M3619 1359 c-12 -7 -12 -9 0 -9 10 0 11 -3 3 -13 -7 -8 -7 -18 -2
-27 5 -8 6 -18 4 -22 -3 -5 -2 -7 3 -6 5 2 31 -18 58 -44 54 -52 70 -59 62
-28 -3 10 0 21 7 23 7 3 5 11 -7 24 -9 11 -15 22 -12 24 2 3 -11 13 -30 24
-19 10 -35 23 -35 29 0 18 -35 35 -51 25z"/>
<path d="M3814 1356 c-5 -6 -8 -20 -4 -32 5 -22 44 -74 54 -74 3 0 19 -15 35
-32 24 -27 32 -31 42 -20 8 7 9 12 2 12 -6 0 -9 13 -7 29 2 21 -2 31 -21 41
-14 7 -25 19 -25 26 0 7 -9 16 -20 19 -11 4 -18 10 -16 14 9 13 -28 29 -40 17z"/>
<path d="M2745 1188 c14 -16 25 -34 25 -39 0 -6 4 -8 9 -5 5 3 12 -1 15 -10 3
-8 10 -13 15 -9 5 3 12 -3 15 -13 4 -10 13 -19 21 -19 22 0 18 13 -10 35 -14
11 -25 25 -25 30 0 6 -9 14 -20 17 -11 3 -20 12 -20 20 0 7 -11 15 -25 17
l-24 5 24 -29z"/>
<path d="M3427 1213 c-11 -10 -8 -23 4 -23 15 0 39 -26 32 -34 -4 -3 -1 -6 6
-6 7 0 19 -7 27 -15 9 -8 12 -15 7 -15 -4 0 5 -9 21 -19 54 -36 46 -11 -17 54
-65 67 -69 70 -80 58z"/>
<path d="M3625 1210 c3 -5 0 -10 -7 -10 -7 0 -4 -6 7 -12 11 -6 38 -31 61 -55
28 -31 45 -42 57 -37 15 6 14 9 -8 30 -14 13 -30 24 -36 24 -5 0 -9 7 -9 16 0
8 -4 12 -10 9 -5 -3 -10 -2 -10 4 0 12 -29 41 -41 41 -6 0 -7 -4 -4 -10z"/>
<path d="M3800 1216 c0 -2 14 -18 30 -36 21 -22 35 -30 48 -25 13 5 14 3 5 -6
-9 -9 -6 -17 10 -34 12 -12 27 -20 34 -18 15 6 -36 73 -54 73 -7 0 -13 6 -13
14 0 8 -13 19 -30 25 -16 5 -30 8 -30 7z"/>
</g>
</svg>
